<svg width="124" height="124" viewBox="0 0 124 124" fill="none" xmlns="http://www.w3.org/2000/svg">
<g filter="url(#filter0_d_369_363)">
<path d="M4 31C4 16.0883 16.0883 4 31 4H91C105.912 4 118 16.0883 118 31V91C118 105.912 105.912 118 91 118H31C16.0883 118 4 105.912 4 91V31Z" fill="#373737"/>
</g>
<path d="M28.5419 77.4474C26.3473 77.4474 24.3871 77.0692 22.6612 76.3129C20.946 75.5565 19.5877 74.5071 18.5863 73.1648C17.5955 71.8118 17.0629 70.2457 16.9883 68.4666H22.006C22.07 69.4361 22.3949 70.2777 22.9808 70.9915C23.5774 71.6946 24.3551 72.2379 25.3139 72.6214C26.2727 73.005 27.3381 73.1967 28.5099 73.1967C29.799 73.1967 30.9389 72.973 31.9297 72.5256C32.9311 72.0781 33.7141 71.4549 34.2788 70.6559C34.8434 69.8462 35.1257 68.9141 35.1257 67.8594C35.1257 66.7621 34.8434 65.7979 34.2788 64.967C33.7248 64.1254 32.9098 63.4648 31.8338 62.9854C30.7685 62.506 29.4794 62.2663 27.9666 62.2663H25.2021V58.2393H27.9666C29.1811 58.2393 30.2464 58.021 31.1626 57.5842C32.0895 57.1474 32.8139 56.5401 33.3359 55.7624C33.858 54.9741 34.119 54.0526 34.119 52.9979C34.119 51.9858 33.8899 51.1069 33.4318 50.3612C32.9844 49.6048 32.3452 49.0135 31.5142 48.5874C30.6939 48.1612 29.7244 47.9482 28.6058 47.9482C27.5405 47.9482 26.5444 48.1452 25.6175 48.5394C24.7013 48.9229 23.9556 49.4769 23.3803 50.2013C22.805 50.9151 22.4961 51.7727 22.4535 52.7741H17.6754C17.7287 51.0057 18.2507 49.4503 19.2415 48.108C20.2429 46.7656 21.5639 45.7163 23.2045 44.9599C24.8452 44.2035 26.6669 43.8253 28.6697 43.8253C30.7685 43.8253 32.5795 44.2354 34.103 45.0558C35.6371 45.8654 36.8196 46.9467 37.6506 48.2997C38.4922 49.6527 38.9077 51.1335 38.897 52.7422C38.9077 54.5746 38.3963 56.13 37.3629 57.4084C36.3402 58.6868 34.9766 59.5444 33.272 59.9812V60.2369C35.4453 60.5671 37.1286 61.43 38.3217 62.8256C39.5256 64.2212 40.1222 65.9524 40.1115 68.0192C40.1222 69.8196 39.6214 71.4336 38.6094 72.8612C37.608 74.2887 36.239 75.4126 34.5025 76.233C32.766 77.0426 30.7791 77.4474 28.5419 77.4474Z" fill="#0695D5"/>
<path d="M73.7816 54.9155H68.7958C68.604 53.8501 68.2472 52.9126 67.7251 52.103C67.2031 51.2933 66.5639 50.6062 65.8075 50.0415C65.0511 49.4769 64.2042 49.0508 63.2667 48.7631C62.3398 48.4755 61.3544 48.3317 60.3104 48.3317C58.4247 48.3317 56.7362 48.8058 55.2447 49.7539C53.7638 50.7021 52.592 52.0923 51.729 53.9247C50.8768 55.7571 50.4506 57.9943 50.4506 60.6364C50.4506 63.2997 50.8768 65.5476 51.729 67.38C52.592 69.2124 53.7692 70.5973 55.2607 71.5348C56.7521 72.4723 58.43 72.9411 60.2944 72.9411C61.3278 72.9411 62.3079 72.8026 63.2347 72.5256C64.1722 72.2379 65.0192 71.8171 65.7756 71.2631C66.532 70.7092 67.1712 70.0327 67.6932 69.2337C68.2259 68.424 68.5934 67.4972 68.7958 66.4531L73.7816 66.4691C73.5153 68.0778 72.9986 69.5586 72.2315 70.9116C71.4751 72.2539 70.5004 73.4151 69.3072 74.3952C68.1246 75.3647 66.7717 76.1158 65.2482 76.6484C63.7248 77.1811 62.0629 77.4474 60.2624 77.4474C57.4286 77.4474 54.9038 76.7763 52.6879 75.4339C50.4719 74.081 48.7248 72.1474 47.4464 69.6332C46.1786 67.119 45.5447 64.12 45.5447 60.6364C45.5447 57.142 46.1839 54.1431 47.4624 51.6396C48.7408 49.1254 50.4879 47.1971 52.7038 45.8548C54.9197 44.5018 57.4393 43.8253 60.2624 43.8253C61.9989 43.8253 63.6183 44.0756 65.1204 44.5763C66.6332 45.0664 67.9915 45.7908 69.1953 46.7496C70.3991 47.6978 71.3952 48.859 72.1836 50.2333C72.9719 51.5969 73.5046 53.1577 73.7816 54.9155ZM82.7305 44.2727L90.5607 57.0728H90.8164L98.6467 44.2727H104.368L94.1722 60.6364L104.431 77H98.6786L90.8164 64.3757H90.5607L82.6985 77H76.9457L87.3807 60.6364L77.0096 44.2727H82.7305Z" fill="white"/>
<path d="M76 61L72.25 65.3301V56.6699L76 61Z" fill="#0695D5"/>
<defs>
<filter id="filter0_d_369_363" x="0" y="0" width="124" height="124" filterUnits="userSpaceOnUse" color-interpolation-filters="sRGB">
<feFlood flood-opacity="0" result="BackgroundImageFix"/>
<feColorMatrix in="SourceAlpha" type="matrix" values="0 0 0 0 0 0 0 0 0 0 0 0 0 0 0 0 0 0 127 0" result="hardAlpha"/>
<feOffset dx="1" dy="1"/>
<feGaussianBlur stdDeviation="2.5"/>
<feComposite in2="hardAlpha" operator="out"/>
<feColorMatrix type="matrix" values="0 0 0 0 0 0 0 0 0 0 0 0 0 0 0 0 0 0 0.25 0"/>
<feBlend mode="normal" in2="BackgroundImageFix" result="effect1_dropShadow_369_363"/>
<feBlend mode="normal" in="SourceGraphic" in2="effect1_dropShadow_369_363" result="shape"/>
</filter>
</defs>
</svg>
