<svg width="114" height="114" viewBox="0 0 114 114" fill="none" xmlns="http://www.w3.org/2000/svg">
<path d="M0 41.2571C0 26.8158 0 19.5951 2.81047 14.0792C5.28264 9.22735 9.22735 5.28264 14.0792 2.81047C19.5951 0 26.8158 0 41.2571 0H72.7429C87.1842 0 94.4049 0 99.9208 2.81047C104.773 5.28264 108.717 9.22735 111.19 14.0792C114 19.5951 114 26.8158 114 41.2571V72.7429C114 87.1842 114 94.4049 111.19 99.9208C108.717 104.773 104.773 108.717 99.9208 111.19C94.4049 114 87.1842 114 72.7429 114H41.2571C26.8158 114 19.5951 114 14.0792 111.19C9.22735 108.717 5.28264 104.773 2.81047 99.9208C0 94.4049 0 87.1842 0 72.7429V41.2571Z" fill="#330000"/>
<path d="M55.2428 71.6419H37.5771L33.9828 83.0936C33.883 83.5191 33.4912 83.8204 33.065 83.7995H24.1175C23.6072 83.7995 23.4288 83.5119 23.5822 82.9367L38.8771 37.7576C39.0301 37.2871 39.1831 36.7511 39.336 36.1497C39.5361 35.1032 39.6385 34.0395 39.6419 32.9731C39.5981 32.6581 39.875 32.3798 40.1773 32.424H52.3366C52.6929 32.424 52.8968 32.5547 52.9485 32.8162L70.3085 83.0151C70.4613 83.5384 70.3083 83.7999 69.8495 83.7995H59.9076C59.5589 83.8391 59.226 83.6001 59.143 83.2505L55.2428 71.6419ZM40.3301 61.7591H52.4132C50.428 54.9753 48.1876 48.2807 46.3718 41.4442C44.4126 48.2923 42.2751 55.1128 40.3301 61.7591Z" fill="#FF9A00"/>
<path d="M80.6316 40.738C79.8516 40.7701 79.0737 40.633 78.3489 40.3357C77.6241 40.0383 76.9687 39.5874 76.4255 39.0124C75.8837 38.4125 75.4629 37.7087 75.1873 36.9414C74.9117 36.1741 74.7866 35.3586 74.8193 34.5416C74.7915 33.7326 74.9304 32.9268 75.2269 32.1767C75.5234 31.4266 75.9709 30.749 76.54 30.1883C77.1037 29.6335 77.769 29.1987 78.4976 28.9092C79.2261 28.6198 80.0034 28.4814 80.7844 28.502C82.6199 28.502 84.0602 29.0641 85.1053 30.1883C85.6329 30.7726 86.0429 31.4578 86.3119 32.2048C86.5809 32.9518 86.7036 33.7459 86.673 34.5416C86.7049 35.3617 86.5759 36.1802 86.2934 36.9482C86.011 37.7162 85.5809 38.4182 85.0288 39.0124C84.4517 39.5958 83.7631 40.0504 83.0063 40.3473C82.2495 40.6443 81.441 40.7773 80.6316 40.738ZM75.3546 83.0149V45.5225C75.3546 45.052 75.5578 44.8166 75.9665 44.8166H85.373C85.7805 44.8166 85.9844 45.0519 85.9848 45.5225V83.0149C85.9848 83.5382 85.7809 83.7997 85.373 83.7993H76.043C75.5842 83.7993 75.3548 83.5378 75.3546 83.0149Z" fill="#FF9A00"/>
</svg>
