<svg width="124" height="124" viewBox="0 0 124 124" fill="none" xmlns="http://www.w3.org/2000/svg">
<g filter="url(#filter0_d_369_400)">
<path d="M4 31C4 16.0883 16.0883 4 31 4H91C105.912 4 118 16.0883 118 31V91C118 105.912 105.912 118 91 118H31C16.0883 118 4 105.912 4 91V31Z" fill="url(#paint0_linear_369_400)" shape-rendering="crispEdges"/>
</g>
<path d="M25.52 71.6C22.56 71.6 20.2667 70.8133 18.64 69.24C17.04 67.6667 16.24 65.6267 16.24 63.12C16.24 60.8267 16.8 58.5867 17.92 56.4C19.0667 54.2133 20.5067 52.2 22.24 50.36C23.6533 48.8667 25.2667 47.5733 27.08 46.48C28.92 45.3867 30.84 44.5333 32.84 43.92C34.8667 43.3067 36.84 43 38.76 43C40.28 43 41.6533 43.2133 42.88 43.64C44.1067 44.04 45.08 44.68 45.8 45.56C46.52 46.44 46.88 47.5867 46.88 49C46.88 50.2533 46.5733 51.4267 45.96 52.52C45.3733 53.5867 44.5733 54.52 43.56 55.32C42.5733 56.12 41.48 56.7467 40.28 57.2C39.08 57.6533 37.8667 57.88 36.64 57.88C35.04 57.88 33.6933 57.52 32.6 56.8C31.5067 56.0533 30.96 55.12 30.96 54C30.96 52.56 31.88 51.1467 33.72 49.76C34.04 49.52 34.2933 49.4 34.48 49.4C34.6133 49.4 34.68 49.4533 34.68 49.56C34.68 49.8267 34.4667 50.04 34.04 50.2C32.5467 51.4 31.8 52.6133 31.8 53.84C31.8 54.72 32.2 55.4667 33 56.08C33.8 56.6667 34.8 56.96 36 56.96C37.0667 56.96 38.1333 56.7333 39.2 56.28C40.2933 55.8267 41.2933 55.2133 42.2 54.44C43.1067 53.6667 43.8267 52.8 44.36 51.84C44.92 50.8533 45.2 49.8267 45.2 48.76C45.2 47.0267 44.6133 45.76 43.44 44.96C42.2667 44.16 40.7733 43.76 38.96 43.76C36.9067 43.76 34.8667 44.1467 32.84 44.92C30.84 45.6933 28.96 46.76 27.2 48.12C25.44 49.48 23.8667 51.04 22.48 52.8C19.7067 56.2933 18.32 59.5733 18.32 62.64C18.32 64.2667 18.6933 65.6533 19.44 66.8C20.1867 67.92 21.2133 68.7733 22.52 69.36C23.8533 69.9467 25.3733 70.24 27.08 70.24C29.6133 70.24 32.0667 69.6933 34.44 68.6C36.8133 67.48 38.84 65.9867 40.52 64.12C40.9733 63.64 41.3067 63.4 41.52 63.4C41.68 63.4 41.76 63.52 41.76 63.76C41.76 64.08 41.6133 64.3867 41.32 64.68C40.4133 65.64 39.3333 66.5333 38.08 67.36C36.8267 68.1867 35.48 68.92 34.04 69.56C32.6267 70.2 31.1867 70.6933 29.72 71.04C28.2533 71.4133 26.8533 71.6 25.52 71.6ZM46.7034 69.2C46.0634 69.2 45.4234 68.9733 44.7834 68.52C44.1434 68.0667 43.7834 67.5333 43.7034 66.92C43.4368 64.8667 44.7301 62.4267 47.5834 59.6C50.4101 56.7733 52.9568 55.36 55.2234 55.36C55.8368 55.36 56.3168 55.5067 56.6634 55.8C56.8501 55.9867 56.9834 56.24 57.0634 56.56C57.1701 56.88 57.2501 57.04 57.3034 57.04C57.4101 57.04 57.5034 57.0267 57.5834 57C57.6634 56.9467 57.7568 56.92 57.8634 56.92C58.1834 56.92 58.4634 57.04 58.7034 57.28C58.9434 57.52 59.0768 57.7333 59.1034 57.92C59.1301 57.9733 58.2768 59.2933 56.5434 61.88C54.8101 64.4133 54.0234 66.1333 54.1834 67.04C54.3168 67.6533 54.6101 67.96 55.0634 67.96C56.4501 67.96 58.9834 65.6667 62.6634 61.08C62.7434 60.9733 62.8234 60.92 62.9034 60.92C63.0368 60.92 63.1034 61.0133 63.1034 61.2C63.1034 61.4133 62.9834 61.68 62.7434 62C59.3568 66.56 56.7568 68.84 54.9434 68.84C54.7034 68.84 54.4768 68.8 54.2634 68.72C53.0901 68.2667 52.5034 67.3867 52.5034 66.08C52.5034 65.6267 52.5568 65.1733 52.6634 64.72L50.1834 67.12C49.4368 67.8667 48.7568 68.4 48.1434 68.72C47.5568 69.04 47.0768 69.2 46.7034 69.2ZM46.3434 68.32C47.8901 68.32 49.9968 66.6267 52.6634 63.24L56.9034 57.4C56.6901 57.0267 56.3434 56.84 55.8634 56.84C54.2368 56.84 52.0368 58.1467 49.2634 60.76C46.3834 63.4267 45.0901 65.6267 45.3834 67.36C45.5168 68 45.8368 68.32 46.3434 68.32ZM70.7078 69.08C69.9878 69.08 69.4811 68.88 69.1878 68.48C68.8945 68.0533 68.7478 67.5333 68.7478 66.92C68.7478 65.3733 69.2811 63.72 70.3478 61.96L72.9078 57.8C71.0945 59.1333 69.2945 60.8 67.5078 62.8C67.0278 63.3333 66.4811 63.96 65.8678 64.68C65.2811 65.4 64.6278 66.2267 63.9078 67.16C62.9478 68.4133 62.3745 69.04 62.1878 69.04C61.8145 69.04 61.5078 68.88 61.2678 68.56C61.0278 68.2133 60.9078 67.9067 60.9078 67.64C60.9078 67.4267 60.9745 67.04 61.1078 66.48C61.2411 65.8933 61.4011 65.3867 61.5878 64.96C61.7745 64.5067 61.9611 64.0667 62.1478 63.64C62.3611 63.1867 62.5611 62.7467 62.7478 62.32L60.3478 64.84C60.2945 64.8933 60.1345 65.0533 59.8678 65.32C59.6011 65.5867 59.3878 65.72 59.2278 65.72C59.0945 65.72 59.0278 65.6267 59.0278 65.44C59.0278 65.3867 59.0545 65.32 59.1078 65.24C59.1345 65.1333 59.2145 65.0133 59.3478 64.88C59.7478 64.48 60.1611 64.0533 60.5878 63.6C61.0145 63.1467 61.4545 62.6267 61.9078 62.04C62.1478 61.7467 62.5078 61.3067 62.9878 60.72C63.4678 60.1067 63.9878 59.4533 64.5478 58.76C65.1345 58.0667 65.6811 57.4267 66.1878 56.84C66.3211 56.6533 66.4678 56.5333 66.6278 56.48C66.7878 56.4 66.8945 56.36 66.9478 56.36C67.6678 56.36 68.0278 56.64 68.0278 57.2C68.0278 57.36 67.9878 57.52 67.9078 57.68C65.5078 60.9867 64.0678 63.5067 63.5878 65.24C66.6811 62.1467 69.1611 59.8267 71.0278 58.28C72.9211 56.7067 74.2678 55.92 75.0678 55.92C75.4945 55.92 75.8145 55.9867 76.0278 56.12C76.2678 56.2533 76.3878 56.5067 76.3878 56.88C76.3878 57.0133 76.3745 57.12 76.3478 57.2C76.2678 57.3867 75.7211 58.1333 74.7078 59.44C74.0945 60.1867 73.5478 60.8667 73.0678 61.48C72.6145 62.0933 72.2411 62.6267 71.9478 63.08C71.4678 63.8267 71.1078 64.5333 70.8678 65.2C70.6278 65.84 70.5078 66.3867 70.5078 66.84C70.5078 67.0267 70.5345 67.2533 70.5878 67.52C70.6411 67.7867 70.8011 67.92 71.0678 67.92C71.6811 67.92 72.6411 67.3867 73.9478 66.32C74.5611 65.7867 75.1345 65.2533 75.6678 64.72C76.2011 64.16 76.7078 63.6133 77.1878 63.08C77.2945 62.9733 77.4678 62.7733 77.7078 62.48C77.9478 62.16 78.0945 62 78.1478 62C78.2545 62 78.3078 62.1067 78.3078 62.32C78.3078 62.4267 78.2411 62.6133 78.1078 62.88C78.0011 63.12 77.8811 63.3067 77.7478 63.44C77.4545 63.7867 77.0145 64.2667 76.4278 64.88C75.8678 65.4933 75.2278 66.12 74.5078 66.76C73.8145 67.4 73.1345 67.9467 72.4678 68.4C71.8011 68.8533 71.2145 69.08 70.7078 69.08ZM77.9606 69.12C77.8006 69.12 77.574 69.0533 77.2806 68.92C76.9873 68.76 76.7206 68.5867 76.4806 68.4C76.2406 68.1867 76.1073 68 76.0806 67.84C76.054 67.6267 76.2006 67.0267 76.5206 66.04C76.814 65.0267 77.294 63.6533 77.9606 61.92C78.6273 60.16 79.1873 58.8 79.6406 57.84C80.094 56.88 80.4273 56.3067 80.6406 56.12C80.7473 56.0133 80.894 55.96 81.0806 55.96C81.374 55.96 81.654 56.0933 81.9206 56.36C82.1873 56.6 82.334 56.8933 82.3606 57.24C82.3606 57.2667 81.694 58.84 80.3606 61.96C79.054 64.9733 78.4406 66.7733 78.5206 67.36C79.694 66.9867 81.654 65.6667 84.4006 63.4C86.054 62.0133 87.2406 60.76 87.9606 59.64C88.7073 58.4933 89.0806 57.4667 89.0806 56.56C89.0806 56.0267 88.9473 55.5467 88.6806 55.12C88.4406 54.6667 87.9873 54.2933 87.3206 54C87.134 53.92 87.0406 53.8 87.0406 53.64C87.0406 53.4 87.1873 53.28 87.4806 53.28C88.254 53.28 88.9206 53.5333 89.4806 54.04C90.0673 54.5467 90.3606 55.3067 90.3606 56.32C90.3606 57.3867 89.9073 58.6 89.0006 59.96C88.094 61.2933 86.8006 62.72 85.1206 64.24C83.654 65.5467 82.3206 66.6133 81.1206 67.44C79.9473 68.2667 78.894 68.8267 77.9606 69.12ZM91.3519 69.2C90.7119 69.2 90.0719 68.9733 89.4319 68.52C88.7919 68.0667 88.4319 67.5333 88.3519 66.92C88.0852 64.8667 89.3785 62.4267 92.2319 59.6C95.0585 56.7733 97.6052 55.36 99.8719 55.36C100.485 55.36 100.965 55.5067 101.312 55.8C101.499 55.9867 101.632 56.24 101.712 56.56C101.819 56.88 101.899 57.04 101.952 57.04C102.059 57.04 102.152 57.0267 102.232 57C102.312 56.9467 102.405 56.92 102.512 56.92C102.832 56.92 103.112 57.04 103.352 57.28C103.592 57.52 103.725 57.7333 103.752 57.92C103.779 57.9733 102.925 59.2933 101.192 61.88C99.4585 64.4133 98.6719 66.1333 98.8319 67.04C98.9652 67.6533 99.2585 67.96 99.7119 67.96C101.099 67.96 103.632 65.6667 107.312 61.08C107.392 60.9733 107.472 60.92 107.552 60.92C107.685 60.92 107.752 61.0133 107.752 61.2C107.752 61.4133 107.632 61.68 107.392 62C104.005 66.56 101.405 68.84 99.5919 68.84C99.3519 68.84 99.1252 68.8 98.9119 68.72C97.7385 68.2667 97.1519 67.3867 97.1519 66.08C97.1519 65.6267 97.2052 65.1733 97.3119 64.72L94.8319 67.12C94.0852 67.8667 93.4052 68.4 92.7919 68.72C92.2052 69.04 91.7252 69.2 91.3519 69.2ZM90.9919 68.32C92.5385 68.32 94.6452 66.6267 97.3119 63.24L101.552 57.4C101.339 57.0267 100.992 56.84 100.512 56.84C98.8852 56.84 96.6852 58.1467 93.9119 60.76C91.0319 63.4267 89.7385 65.6267 90.0319 67.36C90.1652 68 90.4852 68.32 90.9919 68.32Z" fill="white"/>
<defs>
<filter id="filter0_d_369_400" x="0" y="0" width="124" height="124" filterUnits="userSpaceOnUse" color-interpolation-filters="sRGB">
<feFlood flood-opacity="0" result="BackgroundImageFix"/>
<feColorMatrix in="SourceAlpha" type="matrix" values="0 0 0 0 0 0 0 0 0 0 0 0 0 0 0 0 0 0 127 0" result="hardAlpha"/>
<feOffset dx="1" dy="1"/>
<feGaussianBlur stdDeviation="2.5"/>
<feComposite in2="hardAlpha" operator="out"/>
<feColorMatrix type="matrix" values="0 0 0 0 0 0 0 0 0 0 0 0 0 0 0 0 0 0 0.25 0"/>
<feBlend mode="normal" in2="BackgroundImageFix" result="effect1_dropShadow_369_400"/>
<feBlend mode="normal" in="SourceGraphic" in2="effect1_dropShadow_369_400" result="shape"/>
</filter>
<linearGradient id="paint0_linear_369_400" x1="26.5" y1="17" x2="102.5" y2="102" gradientUnits="userSpaceOnUse">
<stop offset="0.1" stop-color="#7DE4FB"/>
<stop offset="1" stop-color="#9459F4" stop-opacity="0.91"/>
</linearGradient>
</defs>
</svg>
