<svg width="124" height="124" viewBox="0 0 124 124" fill="none" xmlns="http://www.w3.org/2000/svg">
<g filter="url(#filter0_d_372_1188)">
<path d="M4 31C4 16.0883 16.0883 4 31 4H91C105.912 4 118 16.0883 118 31V91C118 105.912 105.912 118 91 118H31C16.0883 118 4 105.912 4 91V31Z" fill="white"/>
</g>
<rect x="41" y="26" width="60" height="70" rx="2" fill="#2FB776"/>
<path d="M41 78.5H101V94C101 95.1046 100.105 96 99 96H43C41.8954 96 41 95.1046 41 94V78.5Z" fill="url(#paint0_linear_372_1188)"/>
<rect x="71" y="61" width="30" height="17.5" fill="#229C5B"/>
<rect x="71" y="43.5" width="30" height="17.5" fill="#27AE68"/>
<path d="M41 28C41 26.8954 41.8954 26 43 26H71V43.5H41V28Z" fill="#1D854F"/>
<rect x="41" y="43.5" width="30" height="17.5" fill="#197B43"/>
<rect x="41" y="61" width="30" height="17.5" fill="#1B5B38"/>
<path d="M41 46.5C41 44.8431 42.3431 43.5 44 43.5H68C69.6569 43.5 71 44.8431 71 46.5V85.5C71 87.1569 69.6569 88.5 68 88.5H41V46.5Z" fill="black" fill-opacity="0.3"/>
<rect x="21" y="38.5" width="45" height="45" rx="2" fill="url(#paint1_linear_372_1188)"/>
<path d="M53.5 73.5L46.4553 60.75L53.1907 48.5H47.6924L43.5344 56.3214L39.445 48.5H33.7749L40.5447 60.75L33.5 73.5H38.9983L43.4313 65.2143L47.8299 73.5H53.5Z" fill="white"/>
<defs>
<filter id="filter0_d_372_1188" x="0" y="0" width="124" height="124" filterUnits="userSpaceOnUse" color-interpolation-filters="sRGB">
<feFlood flood-opacity="0" result="BackgroundImageFix"/>
<feColorMatrix in="SourceAlpha" type="matrix" values="0 0 0 0 0 0 0 0 0 0 0 0 0 0 0 0 0 0 127 0" result="hardAlpha"/>
<feOffset dx="1" dy="1"/>
<feGaussianBlur stdDeviation="2.5"/>
<feComposite in2="hardAlpha" operator="out"/>
<feColorMatrix type="matrix" values="0 0 0 0 0 0 0 0 0 0 0 0 0 0 0 0 0 0 0.25 0"/>
<feBlend mode="normal" in2="BackgroundImageFix" result="effect1_dropShadow_372_1188"/>
<feBlend mode="normal" in="SourceGraphic" in2="effect1_dropShadow_372_1188" result="shape"/>
</filter>
<linearGradient id="paint0_linear_372_1188" x1="41" y1="87.25" x2="101" y2="87.25" gradientUnits="userSpaceOnUse">
<stop stop-color="#163C27"/>
<stop offset="1" stop-color="#2A6043"/>
</linearGradient>
<linearGradient id="paint1_linear_372_1188" x1="21" y1="61" x2="66" y2="61" gradientUnits="userSpaceOnUse">
<stop stop-color="#185A30"/>
<stop offset="1" stop-color="#176F3D"/>
</linearGradient>
</defs>
</svg>
