<svg width="124" height="124" viewBox="0 0 124 124" fill="none" xmlns="http://www.w3.org/2000/svg">
<g filter="url(#filter0_d_372_237)">
<path d="M4 31C4 16.0883 16.0883 4 31 4H91C105.912 4 118 16.0883 118 31V91C118 105.912 105.912 118 91 118H31C16.0883 118 4 105.912 4 91V31Z" fill="white"/>
</g>
<g clip-path="url(#clip0_372_237)">
<path d="M99.4699 53.7619L99.3629 53.4765L88.5603 25.2982C88.3417 24.7449 87.9524 24.2755 87.4495 23.9581C87.074 23.7177 86.6475 23.5687 86.2041 23.5229C85.7608 23.4771 85.3129 23.5358 84.8961 23.6943C84.4798 23.8529 84.1058 24.1068 83.8052 24.4357C83.5045 24.7647 83.2849 25.1595 83.1641 25.5886L75.8724 47.9122H46.3438L39.052 25.5886C38.9304 25.1602 38.7103 24.7661 38.4094 24.4378C38.1084 24.1094 37.7349 23.856 37.3186 23.6976C36.9024 23.5392 36.4549 23.4803 36.0118 23.5255C35.5687 23.5707 35.1423 23.7188 34.7666 23.9581C34.2636 24.2755 33.8745 24.7449 33.6558 25.2982L22.8584 53.4816L22.7463 53.7619C21.1918 57.8246 21.0002 62.2825 22.2006 66.4636C23.401 70.6447 25.9281 74.3223 29.4011 76.9414L29.4418 76.972L29.5335 77.0433L45.9666 89.3592L54.1195 95.5197L59.0724 99.265C59.6535 99.7042 60.3619 99.9417 61.0902 99.9417C61.8185 99.9417 62.5269 99.7042 63.108 99.265L68.0609 95.5197L76.2138 89.3592L92.7641 76.972L92.81 76.9363C96.2826 74.3182 98.81 70.6417 100.012 66.4617C101.213 62.2817 101.022 57.8245 99.4699 53.7619Z" fill="#E24329"/>
<path d="M99.4709 53.7619L99.3639 53.4765C94.1007 54.5565 89.1412 56.7873 84.8416 60.009L61.1218 77.9452L76.225 89.3593L92.7753 76.972L92.8212 76.9363C96.2923 74.3167 98.8176 70.6398 100.017 66.4598C101.216 62.2799 101.024 57.8234 99.4709 53.7619Z" fill="#FC6D26"/>
<path d="M45.9688 89.3592L54.1216 95.5197L59.0745 99.265C59.6556 99.7042 60.364 99.9417 61.0923 99.9417C61.8206 99.9417 62.529 99.7042 63.1102 99.265L68.063 95.5197L76.2159 89.3592L61.1127 77.9452L45.9688 89.3592Z" fill="#FCA326"/>
<path d="M37.3756 60.0091C33.0773 56.789 28.1197 54.56 22.8584 53.4817L22.7463 53.7619C21.1918 57.8247 21.0002 62.2827 22.2006 66.4637C23.401 70.6447 25.9281 74.3223 29.4011 76.9414L29.4418 76.972L29.5335 77.0433L45.9666 89.3592L61.0801 77.9452L37.3756 60.0091Z" fill="#FC6D26"/>
</g>
<defs>
<filter id="filter0_d_372_237" x="0" y="0" width="124" height="124" filterUnits="userSpaceOnUse" color-interpolation-filters="sRGB">
<feFlood flood-opacity="0" result="BackgroundImageFix"/>
<feColorMatrix in="SourceAlpha" type="matrix" values="0 0 0 0 0 0 0 0 0 0 0 0 0 0 0 0 0 0 127 0" result="hardAlpha"/>
<feOffset dx="1" dy="1"/>
<feGaussianBlur stdDeviation="2.5"/>
<feComposite in2="hardAlpha" operator="out"/>
<feColorMatrix type="matrix" values="0 0 0 0 0 0 0 0 0 0 0 0 0 0 0 0 0 0 0.25 0"/>
<feBlend mode="normal" in2="BackgroundImageFix" result="effect1_dropShadow_372_237"/>
<feBlend mode="normal" in="SourceGraphic" in2="effect1_dropShadow_372_237" result="shape"/>
</filter>
<clipPath id="clip0_372_237">
<rect width="80" height="76.9427" fill="white" transform="translate(21 23)"/>
</clipPath>
</defs>
</svg>
