<svg width="114" height="114" viewBox="0 0 114 114" fill="none" xmlns="http://www.w3.org/2000/svg">
<rect x="0.5" y="0.5" width="113" height="113" rx="26.5" fill="url(#paint0_linear_435_573)" stroke="url(#paint1_linear_435_573)"/>
<path fill-rule="evenodd" clip-rule="evenodd" d="M58.1797 64.8691V91.1426C58.1797 92.6182 59.3759 93.8145 60.8516 93.8145H70.9824C71.7817 93.8145 72.4297 94.4624 72.4297 95.2617V95.4844C72.4297 96.2837 71.7817 96.9316 70.9824 96.9316H42.2598C41.4605 96.9316 40.8125 96.2837 40.8125 95.4844V95.2617C40.8125 94.4624 41.4605 93.8145 42.2598 93.8145H52.3906C53.8663 93.8145 55.0625 92.6182 55.0625 91.1426V64.8691H58.1797ZM90.2422 59.748V60.082C90.2422 61.5577 89.0459 62.7539 87.5703 62.7539H25.6719C24.1962 62.7539 23 61.5577 23 60.082V59.748H90.2422ZM31.9062 24.6797C31.9062 22.2818 33.8501 20.3379 36.248 20.3379H43.8184C45.8223 20.3379 44.8203 18 47.9375 18H54.3945C55.8087 18 56.9551 19.1464 56.9551 20.5605V21.8965C56.9551 23.3106 55.8087 24.457 54.3945 24.457H47.9375C44.8203 24.457 45.8223 22.2305 43.8184 22.2305H36.248C34.8954 22.2305 33.7988 23.327 33.7988 24.6797V29.0215H83.6942C85.548 29.0215 87.0707 30.4861 87.1427 32.3385L88.127 57.6328H25.1152L26.0994 32.3385C26.1715 30.4861 27.6942 29.0215 29.548 29.0215H31.9062V24.6797Z" fill="white"/>
<defs>
<linearGradient id="paint0_linear_435_573" x1="57" y1="114" x2="57" y2="9.74648e-07" gradientUnits="userSpaceOnUse">
<stop stop-color="#0A84FF"/>
<stop offset="1" stop-color="#5AC8F5"/>
</linearGradient>
<linearGradient id="paint1_linear_435_573" x1="24.51" y1="-0.0911486" x2="97.47" y2="107.354" gradientUnits="userSpaceOnUse">
<stop stop-color="white" stop-opacity="0.4"/>
<stop offset="0.477289" stop-color="white" stop-opacity="0.01"/>
<stop offset="0.6014" stop-color="white" stop-opacity="0.01"/>
<stop offset="1" stop-color="white" stop-opacity="0.3"/>
</linearGradient>
</defs>
</svg>
