<svg width="114" height="114" viewBox="0 0 114 114" fill="none" xmlns="http://www.w3.org/2000/svg">
<path d="M0 41.2571C0 26.8158 0 19.5951 2.81047 14.0792C5.28264 9.22735 9.22735 5.28264 14.0792 2.81047C19.5951 0 26.8158 0 41.2571 0H72.7429C87.1842 0 94.4049 0 99.9208 2.81047C104.773 5.28264 108.717 9.22735 111.19 14.0792C114 19.5951 114 26.8158 114 41.2571V72.7429C114 87.1842 114 94.4049 111.19 99.9208C108.717 104.773 104.773 108.717 99.9208 111.19C94.4049 114 87.1842 114 72.7429 114H41.2571C26.8158 114 19.5951 114 14.0792 111.19C9.22735 108.717 5.28264 104.773 2.81047 99.9208C0 94.4049 0 87.1842 0 72.7429V41.2571Z" fill="#001E36"/>
<path d="M59.869 83.9532H29.7379C29.2278 83.9532 28.9729 83.6656 28.9732 83.0904V33.2835C28.9168 32.8783 29.2665 32.5197 29.6615 32.5776H38.9915C39.2988 32.5332 39.5695 32.8166 39.5268 33.1268V74.0703H61.4751C61.9339 74.0703 62.1123 74.3056 62.0104 74.7763L60.6339 83.2473C60.622 83.6738 60.272 83.9488 59.869 83.9532Z" fill="#31A8FF"/>
<path d="M67.5239 44.9157H75.8598C76.3195 44.9198 76.7322 45.2454 76.8539 45.7001C77.4648 47.0913 77.5401 48.7689 77.5423 50.2709C78.9718 48.5637 80.6957 47.1412 82.6277 46.0746C84.6999 44.872 87.0491 44.2625 89.4297 44.3098C89.8247 44.2518 90.1745 44.6105 90.118 45.0157V54.5065C90.118 54.8729 89.8622 55.0555 89.3534 55.0555C85.825 54.8058 80.3318 55.6608 77.7681 58.5067V83.1841C77.7681 83.6547 77.5641 83.8901 77.1562 83.89H68.2123C67.7729 83.9547 67.3854 83.5491 67.4474 83.1056V56.3105C67.4474 52.72 67.5233 49.0215 66.9886 45.4649C66.9063 45.1376 67.2119 44.8332 67.5239 44.9157Z" fill="#31A8FF"/>
</svg>
