<svg width="124" height="124" viewBox="0 0 124 124" fill="none" xmlns="http://www.w3.org/2000/svg">
<g filter="url(#filter0_d_372_1209)">
<path d="M4 31C4 16.0883 16.0883 4 31 4H91C105.912 4 118 16.0883 118 31V91C118 105.912 105.912 118 91 118H31C16.0883 118 4 105.912 4 91V31Z" fill="white"/>
</g>
<path d="M41 78.5H101V94C101 95.1046 100.105 96 99 96H43C41.8954 96 41 95.1046 41 94V78.5Z" fill="#5D29A1"/>
<rect x="41" y="61" width="60" height="17.5" fill="#7F32CC"/>
<rect x="41" y="43.5" width="60" height="17.5" fill="#9A40D6"/>
<path d="M46 26C43.2386 26 41 28.2386 41 31V91C41 93.7614 43.2386 96 46 96H81V43.5H101V31C101 28.2386 98.7614 26 96 26H46Z" fill="url(#paint0_linear_372_1209)"/>
<path d="M41 46.5C41 44.8431 42.3431 43.5 44 43.5H68C69.6569 43.5 71 44.8431 71 46.5V85.5C71 87.1569 69.6569 88.5 68 88.5H41V46.5Z" fill="black" fill-opacity="0.3"/>
<rect x="21" y="38.5" width="45" height="45" rx="2" fill="url(#paint1_linear_372_1209)"/>
<path d="M53.5 73.5V48.5H48.2232V63.0714L38.4077 48.5H33.5V73.5H38.703V58.3929L48.8875 73.5H53.5Z" fill="white"/>
<defs>
<filter id="filter0_d_372_1209" x="0" y="0" width="124" height="124" filterUnits="userSpaceOnUse" color-interpolation-filters="sRGB">
<feFlood flood-opacity="0" result="BackgroundImageFix"/>
<feColorMatrix in="SourceAlpha" type="matrix" values="0 0 0 0 0 0 0 0 0 0 0 0 0 0 0 0 0 0 127 0" result="hardAlpha"/>
<feOffset dx="1" dy="1"/>
<feGaussianBlur stdDeviation="2.5"/>
<feComposite in2="hardAlpha" operator="out"/>
<feColorMatrix type="matrix" values="0 0 0 0 0 0 0 0 0 0 0 0 0 0 0 0 0 0 0.25 0"/>
<feBlend mode="normal" in2="BackgroundImageFix" result="effect1_dropShadow_372_1209"/>
<feBlend mode="normal" in="SourceGraphic" in2="effect1_dropShadow_372_1209" result="shape"/>
</filter>
<linearGradient id="paint0_linear_372_1209" x1="41" y1="61" x2="82.25" y2="61" gradientUnits="userSpaceOnUse">
<stop stop-color="#8C42AC"/>
<stop offset="1" stop-color="#C36DEF"/>
</linearGradient>
<linearGradient id="paint1_linear_372_1209" x1="21" y1="61" x2="68.5" y2="61" gradientUnits="userSpaceOnUse">
<stop stop-color="#44176C"/>
<stop offset="1" stop-color="#621F9C"/>
</linearGradient>
</defs>
</svg>
