<svg width="124" height="124" viewBox="0 0 124 124" fill="none" xmlns="http://www.w3.org/2000/svg">
<g filter="url(#filter0_d_372_1218)">
<path d="M4 31C4 16.0883 16.0883 4 31 4H91C105.912 4 118 16.0883 118 31V91C118 105.912 105.912 118 91 118H31C16.0883 118 4 105.912 4 91V31Z" fill="white"/>
</g>
<rect x="46" y="26" width="50" height="70" rx="2" fill="#1066B5"/>
<rect x="46" y="26" width="50" height="70" rx="2" fill="url(#paint0_linear_372_1218)"/>
<rect x="46" y="33.5" width="25" height="25" fill="#32A9E7"/>
<rect x="46" y="58.5" width="25" height="25" fill="#167EB4"/>
<rect x="71" y="58.5" width="25" height="25" fill="#32A9E7"/>
<rect x="71" y="33.5" width="25" height="25" fill="#58D9FD"/>
<mask id="mask0_372_1218" style="mask-type:alpha" maskUnits="userSpaceOnUse" x="41" y="56" width="60" height="40">
<path d="M41 56H99C100.105 56 101 56.8954 101 58V94C101 95.1046 100.105 96 99 96H43C41.8954 96 41 95.1046 41 94V56Z" fill="url(#paint1_linear_372_1218)"/>
</mask>
<g mask="url(#mask0_372_1218)">
<path d="M101 56V66H96V56H101Z" fill="#135298"/>
<path d="M101 96V61L38.5 96H101Z" fill="url(#paint2_linear_372_1218)"/>
<path d="M41 96V61L103.5 96H41Z" fill="url(#paint3_linear_372_1218)"/>
</g>
<path d="M41 46.5C41 44.8431 42.3431 43.5 44 43.5H68C69.6569 43.5 71 44.8431 71 46.5V85.5C71 87.1569 69.6569 88.5 68 88.5H41V46.5Z" fill="black" fill-opacity="0.3"/>
<rect x="21" y="38.5" width="45" height="45" rx="2" fill="url(#paint4_linear_372_1218)"/>
<path d="M56 61.1731V60.7576C56 53.5554 50.818 48.5 43.5396 48.5C36.2215 48.5 31 53.59 31 60.8269V61.2424C31 68.4446 36.182 73.5 43.5 73.5C50.7785 73.5 56 68.41 56 61.1731ZM50.106 61.2424C50.106 66.0208 47.4161 68.8947 43.5396 68.8947C39.663 68.8947 36.9335 65.9515 36.9335 61.1731V60.7576C36.9335 55.9792 39.6234 53.1053 43.5 53.1053C47.337 53.1053 50.106 56.0485 50.106 60.8269V61.2424Z" fill="white"/>
<defs>
<filter id="filter0_d_372_1218" x="0" y="0" width="124" height="124" filterUnits="userSpaceOnUse" color-interpolation-filters="sRGB">
<feFlood flood-opacity="0" result="BackgroundImageFix"/>
<feColorMatrix in="SourceAlpha" type="matrix" values="0 0 0 0 0 0 0 0 0 0 0 0 0 0 0 0 0 0 127 0" result="hardAlpha"/>
<feOffset dx="1" dy="1"/>
<feGaussianBlur stdDeviation="2.5"/>
<feComposite in2="hardAlpha" operator="out"/>
<feColorMatrix type="matrix" values="0 0 0 0 0 0 0 0 0 0 0 0 0 0 0 0 0 0 0.25 0"/>
<feBlend mode="normal" in2="BackgroundImageFix" result="effect1_dropShadow_372_1218"/>
<feBlend mode="normal" in="SourceGraphic" in2="effect1_dropShadow_372_1218" result="shape"/>
</filter>
<linearGradient id="paint0_linear_372_1218" x1="46" y1="61" x2="96" y2="61" gradientUnits="userSpaceOnUse">
<stop stop-color="#064484"/>
<stop offset="1" stop-color="#0F65B5"/>
</linearGradient>
<linearGradient id="paint1_linear_372_1218" x1="41" y1="87.9231" x2="101" y2="87.9231" gradientUnits="userSpaceOnUse">
<stop stop-color="#1B366F"/>
<stop offset="1" stop-color="#2657B0"/>
</linearGradient>
<linearGradient id="paint2_linear_372_1218" x1="101" y1="78.5" x2="41" y2="78.5" gradientUnits="userSpaceOnUse">
<stop stop-color="#44DCFD"/>
<stop offset="0.453125" stop-color="#259ED0"/>
</linearGradient>
<linearGradient id="paint3_linear_372_1218" x1="41" y1="78.5" x2="101" y2="78.5" gradientUnits="userSpaceOnUse">
<stop stop-color="#259ED0"/>
<stop offset="1" stop-color="#44DCFD"/>
</linearGradient>
<linearGradient id="paint4_linear_372_1218" x1="21" y1="61" x2="66" y2="61" gradientUnits="userSpaceOnUse">
<stop stop-color="#064484"/>
<stop offset="1" stop-color="#0F65B5"/>
</linearGradient>
</defs>
</svg>
