<svg width="124" height="124" viewBox="0 0 124 124" fill="none" xmlns="http://www.w3.org/2000/svg">
<g filter="url(#filter0_d_372_1178)">
<path d="M4 31C4 16.0883 16.0883 4 31 4H91C105.912 4 118 16.0883 118 31V91C118 105.912 105.912 118 91 118H31C16.0883 118 4 105.912 4 91V31Z" fill="white"/>
</g>
<circle cx="64.871" cy="61.129" r="36.129" fill="url(#paint0_linear_372_1178)"/>
<mask id="mask0_372_1178" style="mask-type:alpha" maskUnits="userSpaceOnUse" x="28" y="25" width="73" height="73">
<circle cx="64.871" cy="61.129" r="36.129" fill="#C4C4C4"/>
</mask>
<g mask="url(#mask0_372_1178)">
<rect x="67.4517" y="19.8387" width="43.871" height="43.871" fill="url(#paint1_linear_372_1178)"/>
<path d="M36.4839 46.0645C36.4839 44.4077 37.827 43.0645 39.4839 43.0645H69.6129C71.2698 43.0645 72.6129 44.4077 72.6129 46.0645V86.5161C72.6129 88.173 71.2698 89.5161 69.6129 89.5161H36.4839V46.0645Z" fill="black" fill-opacity="0.3"/>
<rect x="23.5807" y="19.8387" width="43.871" height="43.871" fill="#EB6C4D"/>
</g>
<rect x="21" y="37.9032" width="46.4516" height="46.4516" rx="2" fill="url(#paint2_linear_372_1178)"/>
<path d="M54.5484 57.1475C54.5484 51.5807 50.8837 48.2258 45.0719 48.2258H36.4839V74.0323H41.8144V66.1797H44.8498C50.2914 66.1797 54.5484 63.083 54.5484 57.1475ZM49.1439 57.2581C49.1439 59.765 47.5521 61.3871 44.9609 61.3871H41.8144V53.0553H44.9239C47.5151 53.0553 49.1439 54.4194 49.1439 57.2581Z" fill="white"/>
<defs>
<filter id="filter0_d_372_1178" x="0" y="0" width="124" height="124" filterUnits="userSpaceOnUse" color-interpolation-filters="sRGB">
<feFlood flood-opacity="0" result="BackgroundImageFix"/>
<feColorMatrix in="SourceAlpha" type="matrix" values="0 0 0 0 0 0 0 0 0 0 0 0 0 0 0 0 0 0 127 0" result="hardAlpha"/>
<feOffset dx="1" dy="1"/>
<feGaussianBlur stdDeviation="2.5"/>
<feComposite in2="hardAlpha" operator="out"/>
<feColorMatrix type="matrix" values="0 0 0 0 0 0 0 0 0 0 0 0 0 0 0 0 0 0 0.25 0"/>
<feBlend mode="normal" in2="BackgroundImageFix" result="effect1_dropShadow_372_1178"/>
<feBlend mode="normal" in="SourceGraphic" in2="effect1_dropShadow_372_1178" result="shape"/>
</filter>
<linearGradient id="paint0_linear_372_1178" x1="28.7419" y1="66.1123" x2="101" y2="66.1123" gradientUnits="userSpaceOnUse">
<stop stop-color="#A73A24"/>
<stop offset="1" stop-color="#F75936"/>
</linearGradient>
<linearGradient id="paint1_linear_372_1178" x1="102.29" y1="45.6451" x2="67.4517" y2="45.6451" gradientUnits="userSpaceOnUse">
<stop stop-color="#FDB8A3"/>
<stop offset="1" stop-color="#F1876D"/>
</linearGradient>
<linearGradient id="paint2_linear_372_1178" x1="21" y1="64.3326" x2="67.4516" y2="64.3326" gradientUnits="userSpaceOnUse">
<stop stop-color="#A73A24"/>
<stop offset="1" stop-color="#F75936"/>
</linearGradient>
</defs>
</svg>
