<svg width="124" height="124" viewBox="0 0 124 124" fill="none" xmlns="http://www.w3.org/2000/svg">
<g filter="url(#filter0_d_372_446)">
<path d="M4 45.2571C4 30.8158 4 23.5951 6.81047 18.0792C9.28264 13.2274 13.2274 9.28264 18.0792 6.81047C23.5951 4 30.8158 4 45.2571 4H76.7429C91.1842 4 98.4049 4 103.921 6.81047C108.773 9.28264 112.717 13.2274 115.19 18.0792C118 23.5951 118 30.8158 118 45.2571V76.7429C118 91.1842 118 98.4049 115.19 103.921C112.717 108.773 108.773 112.717 103.921 115.19C98.4049 118 91.1842 118 76.7429 118H45.2571C30.8158 118 23.5951 118 18.0792 115.19C13.2274 112.717 9.28264 108.773 6.81047 103.921C4 98.4049 4 91.1842 4 76.7429V45.2571Z" fill="#242424"/>
<path d="M36.0286 62.6286C20.1501 74.3151 17.0286 91.4 17.0286 105.65C17.7524 101.398 21.0729 91.4272 28.5643 85.5643C39.6929 76.855 60.0499 79.7241 82.3072 64.9358C104.564 50.1474 106.736 30.8715 103.886 16.0786C101.906 30.3526 95.1479 36.5734 85.8357 42.1358C65.6144 54.2143 52.993 50.1429 36.0286 62.6286Z" fill="url(#paint0_linear_372_446)"/>
<path d="M36.0286 62.6286C20.1501 74.3151 17.0286 91.4 17.0286 105.65C17.7524 101.398 21.0729 91.4272 28.5643 85.5643C39.6929 76.855 60.0499 79.7241 82.3072 64.9358C104.564 50.1474 106.736 30.8715 103.886 16.0786C101.906 30.3526 95.1479 36.5734 85.8357 42.1358C65.6144 54.2143 52.993 50.1429 36.0286 62.6286Z" fill="url(#paint1_linear_372_446)"/>
<path d="M17.2185 99.8087C18.0898 86.9329 22.2706 72.7543 36.0286 62.6285C44.8724 56.1194 52.536 54.1102 60.7113 51.9668C65.4823 50.7159 70.4276 49.4193 75.8835 47.156C73.893 49.0571 64.4346 53.495 57.3002 56.4601C50.1844 59.4176 42.6823 62.5356 36.4358 66.6999C23.9032 75.055 18.8073 89.5916 17.2185 99.8087Z" fill="url(#paint2_linear_372_446)"/>
<path d="M17.2185 99.8087C18.0898 86.9329 22.2706 72.7543 36.0286 62.6285C44.8724 56.1194 52.536 54.1102 60.7113 51.9668C65.4823 50.7159 70.4276 49.4193 75.8835 47.156C73.893 49.0571 64.4346 53.495 57.3002 56.4601C50.1844 59.4176 42.6823 62.5356 36.4358 66.6999C23.9032 75.055 18.8073 89.5916 17.2185 99.8087Z" fill="url(#paint3_linear_372_446)"/>
<path d="M94.4579 54.3672C92.8973 55.8958 91.1573 57.2643 89.2287 58.4214C80.543 63.6329 71.3108 65.3135 62.3276 66.9489C55.1691 68.252 48.1686 69.5264 41.7287 72.5357C27.2083 79.321 18.2513 93.4339 17.029 105.648C17.0289 105.648 17.0288 105.649 17.0287 105.649C17.0287 105.647 17.0286 105.645 17.0286 105.643C17.0286 104.71 17.0421 103.766 17.0716 102.812C17.1456 101.298 17.3021 99.6202 17.5611 97.8313C19.4781 87.7867 24.6918 74.5293 36.4358 66.6999C41.4074 63.3856 47.1743 60.734 52.9088 58.2986C57.9519 56.6429 62.497 55.6125 66.8273 54.6307C73.644 53.0853 79.9286 51.6605 86.7859 48.1072C101.175 40.6512 104.944 25.3294 103.931 16.3167C106.082 27.7365 105.213 41.7825 94.4579 54.3672Z" fill="url(#paint4_linear_372_446)"/>
<path d="M94.4576 54.3675C92.897 55.896 91.1572 57.2644 89.2287 58.4215C80.543 63.6329 71.3108 65.3136 62.3276 66.9489C55.1691 68.2521 48.1686 69.5265 41.7287 72.5358C33.378 76.438 26.8673 82.7638 22.6097 89.758C26.3664 84.4794 32.0894 78.5824 39.1501 76.3358C46.04 74.1436 52.6118 73.917 59.4393 73.6817C61.3962 73.6143 63.374 73.5461 65.3864 73.4307C70.8099 71.4564 76.4937 68.7984 82.3071 64.9358C87.318 61.6064 91.3109 58.0495 94.4576 54.3675Z" fill="url(#paint5_linear_372_446)"/>
<path d="M94.4576 54.3675C92.897 55.896 91.1572 57.2644 89.2287 58.4215C80.543 63.6329 71.3108 65.3136 62.3276 66.9489C55.1691 68.2521 48.1686 69.5265 41.7287 72.5358C33.378 76.438 26.8673 82.7638 22.6097 89.758C26.3664 84.4794 32.0894 78.5824 39.1501 76.3358C46.04 74.1436 52.6118 73.917 59.4393 73.6817C61.3962 73.6143 63.374 73.5461 65.3864 73.4307C70.8099 71.4564 76.4937 68.7984 82.3071 64.9358C87.318 61.6064 91.3109 58.0495 94.4576 54.3675Z" fill="url(#paint6_linear_372_446)"/>
<path d="M103.931 16.3167C103.916 16.2372 103.901 16.1578 103.886 16.0786C101.906 30.3526 95.148 36.5734 85.8358 42.1358C82.3081 44.2429 79.0118 45.8585 75.8834 47.1563C73.8924 49.0575 64.4344 53.4951 57.3002 56.4602L57.299 56.4607C55.8471 57.0641 54.3791 57.6743 52.9089 58.2986C57.952 56.6429 62.497 55.6125 66.8273 54.6307C73.644 53.0853 79.9286 51.6605 86.7859 48.1072C101.175 40.6512 104.944 25.3294 103.931 16.3167Z" fill="url(#paint7_linear_372_446)"/>
<path d="M103.931 16.3167C103.916 16.2372 103.901 16.1578 103.886 16.0786C101.906 30.3526 95.148 36.5734 85.8358 42.1358C82.3081 44.2429 79.0118 45.8585 75.8834 47.1563C73.8924 49.0575 64.4344 53.4951 57.3002 56.4602L57.299 56.4607C55.8471 57.0641 54.3791 57.6743 52.9089 58.2986C57.952 56.6429 62.497 55.6125 66.8273 54.6307C73.644 53.0853 79.9286 51.6605 86.7859 48.1072C101.175 40.6512 104.944 25.3294 103.931 16.3167Z" fill="url(#paint8_linear_372_446)"/>
</g>
<defs>
<filter id="filter0_d_372_446" x="0" y="0" width="124" height="124" filterUnits="userSpaceOnUse" color-interpolation-filters="sRGB">
<feFlood flood-opacity="0" result="BackgroundImageFix"/>
<feColorMatrix in="SourceAlpha" type="matrix" values="0 0 0 0 0 0 0 0 0 0 0 0 0 0 0 0 0 0 127 0" result="hardAlpha"/>
<feOffset dx="1" dy="1"/>
<feGaussianBlur stdDeviation="2.5"/>
<feComposite in2="hardAlpha" operator="out"/>
<feColorMatrix type="matrix" values="0 0 0 0 0 0 0 0 0 0 0 0 0 0 0 0 0 0 0.25 0"/>
<feBlend mode="normal" in2="BackgroundImageFix" result="effect1_dropShadow_372_446"/>
<feBlend mode="normal" in="SourceGraphic" in2="effect1_dropShadow_372_446" result="shape"/>
</filter>
<linearGradient id="paint0_linear_372_446" x1="66.7" y1="69.9572" x2="19.7428" y2="103.614" gradientUnits="userSpaceOnUse">
<stop stop-color="#FE5004"/>
<stop offset="0.602538" stop-color="#FFB915"/>
<stop offset="1" stop-color="#FFFC41"/>
</linearGradient>
<linearGradient id="paint1_linear_372_446" x1="48.1071" y1="72.8072" x2="48.3786" y2="77.6929" gradientUnits="userSpaceOnUse">
<stop stop-color="#FD3E00"/>
<stop offset="1" stop-color="#FD4400" stop-opacity="0"/>
</linearGradient>
<linearGradient id="paint2_linear_372_446" x1="75.9286" y1="44.7143" x2="9.70001" y2="103.614" gradientUnits="userSpaceOnUse">
<stop stop-color="#005FC6"/>
<stop offset="0.279756" stop-color="#23A4DF"/>
<stop offset="0.465158" stop-color="#3AC2B7"/>
<stop offset="0.640642" stop-color="#60EC7A"/>
<stop offset="0.818668" stop-color="#CFFDBD"/>
<stop offset="1" stop-color="#D0FCB6"/>
</linearGradient>
<linearGradient id="paint3_linear_372_446" x1="62.4929" y1="55.9786" x2="56.7929" y2="50.8214" gradientUnits="userSpaceOnUse">
<stop stop-color="#0061CB"/>
<stop offset="1" stop-color="#067EEA" stop-opacity="0"/>
</linearGradient>
<linearGradient id="paint4_linear_372_446" x1="104.157" y1="16.2143" x2="17.0286" y2="105.514" gradientUnits="userSpaceOnUse">
<stop stop-color="#8E55F1"/>
<stop offset="0.140795" stop-color="#8B48DF"/>
<stop offset="0.274905" stop-color="#E04DD9"/>
<stop offset="0.492309" stop-color="#F496C8"/>
<stop offset="0.633104" stop-color="#FAD2BA"/>
<stop offset="0.856964" stop-color="#FEF7E5"/>
<stop offset="1" stop-color="#FFF5BF"/>
</linearGradient>
<linearGradient id="paint5_linear_372_446" x1="95.6071" y1="53.5358" x2="24.4928" y2="85.7001" gradientUnits="userSpaceOnUse">
<stop stop-color="#F41A73"/>
<stop offset="0.399909" stop-color="#FC50A3"/>
<stop offset="0.584511" stop-color="#FE9485"/>
<stop offset="0.703104" stop-color="#FFAF88"/>
<stop offset="1" stop-color="#FFC385"/>
</linearGradient>
<linearGradient id="paint6_linear_372_446" x1="69.9571" y1="63.443" x2="70.0928" y2="69.9572" gradientUnits="userSpaceOnUse">
<stop stop-color="#9B0008"/>
<stop offset="1" stop-color="#EA115A" stop-opacity="0"/>
</linearGradient>
<linearGradient id="paint7_linear_372_446" x1="104.157" y1="23.5429" x2="39.9643" y2="65.4786" gradientUnits="userSpaceOnUse">
<stop stop-color="#231283"/>
<stop offset="0.362865" stop-color="#7053C6"/>
<stop offset="0.466353" stop-color="#7272DB"/>
<stop offset="0.634311" stop-color="#399EE9"/>
<stop offset="1" stop-color="#00CFFF"/>
</linearGradient>
<linearGradient id="paint8_linear_372_446" x1="88.1429" y1="44.7143" x2="90.9929" y2="48.3786" gradientUnits="userSpaceOnUse">
<stop stop-color="#3F259D" stop-opacity="0"/>
<stop offset="1" stop-color="#412DAA"/>
</linearGradient>
</defs>
</svg>
