<svg width="114" height="114" viewBox="0 0 114 114" fill="none" xmlns="http://www.w3.org/2000/svg">
<path d="M74.2548 0H39.7452C28.3005 0 22.5786 0 16.4188 1.94749C9.69285 4.39566 4.39565 9.69285 1.9475 16.4188C0 22.5786 0 28.3014 0 39.7452V74.2548C0 85.6995 0 91.4204 1.9475 97.5812C4.39565 104.307 9.69285 109.604 16.4188 112.052C22.5786 114 28.3005 114 39.7452 114H74.2548C85.6995 114 91.4204 114 97.5812 112.052C104.307 109.604 109.604 104.307 112.053 97.5812C114 91.4204 114 85.6995 114 74.2548V39.7452C114 28.3014 114 22.5786 112.053 16.4188C109.604 9.69285 104.307 4.39566 97.5812 1.94749C91.4204 0 85.6995 0 74.2548 0Z" fill="black"/>
<g clip-path="url(#clip0_68_119)">
<path d="M77.6593 54.0759C77.2882 53.898 76.9112 53.7267 76.5293 53.5628C75.8642 41.3077 69.1678 34.2917 57.9237 34.2198C57.8727 34.2195 57.8221 34.2195 57.7711 34.2195C51.0457 34.2195 45.4523 37.0903 42.0096 42.3141L48.1935 46.5561C50.7653 42.6541 54.8016 41.8223 57.7741 41.8223C57.8084 41.8223 57.8429 41.8223 57.8769 41.8226C61.5791 41.8462 64.3729 42.9226 66.181 45.0218C67.4969 46.5501 68.377 48.662 68.8128 51.3272C65.5303 50.7693 61.9804 50.5978 58.1854 50.8154C47.495 51.4312 40.6224 57.666 41.084 66.3295C41.3182 70.7241 43.5075 74.5047 47.2483 76.9744C50.4111 79.0622 54.4846 80.0832 58.7182 79.8521C64.3091 79.5455 68.6952 77.4124 71.755 73.512C74.0789 70.55 75.5487 66.7115 76.1976 61.8748C78.8621 63.4828 80.8368 65.5989 81.9273 68.1427C83.7817 72.4668 83.8899 79.5725 78.092 85.3655C73.0121 90.4404 66.9058 92.6359 57.6776 92.7037C47.4409 92.6278 39.6991 89.3449 34.6656 82.946C29.9521 76.9542 27.5162 68.2997 27.4253 57.2227C27.5162 46.1455 29.9521 37.4909 34.6656 31.4991C39.6991 25.1004 47.4408 21.8175 57.6774 21.7414C67.9883 21.8181 75.8651 25.1167 81.0912 31.5464C83.6538 34.6994 85.5859 38.6646 86.8596 43.2878L94.1062 41.3544C92.5624 35.6637 90.133 30.76 86.8272 26.6932C80.1272 18.4501 70.3283 14.2263 57.7027 14.1387H57.6522C45.0522 14.2259 35.363 18.4658 28.8538 26.7404C23.0616 34.1038 20.0737 44.3494 19.9733 57.1924L19.973 57.2227L19.9733 57.2529C20.0737 70.0958 23.0616 80.3417 28.8538 87.705C35.363 95.9794 45.0522 100.22 57.6522 100.307H57.7027C68.9048 100.229 76.8008 97.2962 83.3056 90.7972C91.816 82.2948 91.5598 71.6374 88.7548 65.0949C86.7424 60.4032 82.9057 56.5926 77.6593 54.0759ZM58.318 72.2603C53.6326 72.5242 48.765 70.4212 48.525 65.9166C48.3471 62.5767 50.9018 58.85 58.6055 58.406C59.4878 58.3551 60.3535 58.3303 61.2039 58.3303C64.0022 58.3303 66.62 58.6021 68.9999 59.1224C68.1122 70.2084 62.9053 72.0085 58.318 72.2603Z" fill="white"/>
</g>
<defs>
<clipPath id="clip0_68_119">
<rect width="86.168" height="86.168" fill="white" transform="translate(14.1387 14.1387)"/>
</clipPath>
</defs>
</svg>
