<svg width="124" height="124" viewBox="0 0 124 124" fill="none" xmlns="http://www.w3.org/2000/svg">
<g filter="url(#filter0_d_372_1200)">
<path d="M4 31C4 16.0883 16.0883 4 31 4H91C105.912 4 118 16.0883 118 31V91C118 105.912 105.912 118 91 118H31C16.0883 118 4 105.912 4 91V31Z" fill="white"/>
</g>
<rect x="41" y="26" width="60" height="70" rx="2" fill="url(#paint0_linear_372_1200)"/>
<path d="M41 78.5H101V94C101 95.1046 100.105 96 99 96H43C41.8954 96 41 95.1046 41 94V78.5Z" fill="url(#paint1_linear_372_1200)"/>
<rect x="41" y="61" width="60" height="17.5" fill="url(#paint2_linear_372_1200)"/>
<rect x="41" y="43.5" width="60" height="17.5" fill="url(#paint3_linear_372_1200)"/>
<path d="M41 46.5C41 44.8431 42.3431 43.5 44 43.5H68C69.6569 43.5 71 44.8431 71 46.5V85.5C71 87.1569 69.6569 88.5 68 88.5H41V46.5Z" fill="black" fill-opacity="0.3"/>
<rect x="21" y="38.5" width="45" height="45" rx="2" fill="url(#paint4_linear_372_1200)"/>
<path d="M58.5 48.5355H53.6307L49.8072 64.8475L45.6242 48.5H41.5065L37.2908 64.8475L33.5 48.5355H28.5L35.0033 73.5H39.317L43.5 57.7199L47.683 73.5H51.9967L58.5 48.5355Z" fill="white"/>
<defs>
<filter id="filter0_d_372_1200" x="0" y="0" width="124" height="124" filterUnits="userSpaceOnUse" color-interpolation-filters="sRGB">
<feFlood flood-opacity="0" result="BackgroundImageFix"/>
<feColorMatrix in="SourceAlpha" type="matrix" values="0 0 0 0 0 0 0 0 0 0 0 0 0 0 0 0 0 0 127 0" result="hardAlpha"/>
<feOffset dx="1" dy="1"/>
<feGaussianBlur stdDeviation="2.5"/>
<feComposite in2="hardAlpha" operator="out"/>
<feColorMatrix type="matrix" values="0 0 0 0 0 0 0 0 0 0 0 0 0 0 0 0 0 0 0.25 0"/>
<feBlend mode="normal" in2="BackgroundImageFix" result="effect1_dropShadow_372_1200"/>
<feBlend mode="normal" in="SourceGraphic" in2="effect1_dropShadow_372_1200" result="shape"/>
</filter>
<linearGradient id="paint0_linear_372_1200" x1="41" y1="37.6667" x2="101" y2="37.6667" gradientUnits="userSpaceOnUse">
<stop stop-color="#2B78B1"/>
<stop offset="1" stop-color="#338ACD"/>
</linearGradient>
<linearGradient id="paint1_linear_372_1200" x1="41" y1="89.4375" x2="101" y2="89.4375" gradientUnits="userSpaceOnUse">
<stop stop-color="#1B366F"/>
<stop offset="1" stop-color="#2657B0"/>
</linearGradient>
<linearGradient id="paint2_linear_372_1200" x1="67.25" y1="71" x2="101" y2="71" gradientUnits="userSpaceOnUse">
<stop stop-color="#20478B"/>
<stop offset="1" stop-color="#2D6FD1"/>
</linearGradient>
<linearGradient id="paint3_linear_372_1200" x1="67.25" y1="53.5" x2="101" y2="53.5" gradientUnits="userSpaceOnUse">
<stop stop-color="#215295"/>
<stop offset="1" stop-color="#2E84D3"/>
</linearGradient>
<linearGradient id="paint4_linear_372_1200" x1="21" y1="63.5" x2="68.5" y2="63.5" gradientUnits="userSpaceOnUse">
<stop stop-color="#223E74"/>
<stop offset="1" stop-color="#215091"/>
</linearGradient>
</defs>
</svg>
