<svg width="35" height="36" viewBox="0 0 35 36" fill="none" xmlns="http://www.w3.org/2000/svg">
<path fill-rule="evenodd" clip-rule="evenodd" d="M17.5 0.5C7.83285 0.5 0 8.53071 0 18.4421C0 26.3676 5.01302 33.0959 11.9686 35.4672C12.8459 35.6307 13.1649 35.0817 13.1649 34.6028C13.1649 34.1764 13.1478 33.0492 13.1421 31.554C8.27148 32.6345 7.24609 29.1477 7.24609 29.1477C6.44857 27.0744 5.30355 26.5195 5.30355 26.5195C3.71419 25.4098 5.42318 25.4332 5.42318 25.4332C7.17773 25.5617 8.10059 27.2788 8.10059 27.2788C9.66146 30.0238 12.1965 29.2295 13.1934 28.7739C13.3529 27.6117 13.8086 26.8232 14.3042 26.3735C10.4191 25.9238 6.33464 24.3819 6.33464 17.5076C6.33464 15.5452 7.01823 13.9449 8.13477 12.6892C7.95817 12.2394 7.35433 10.4114 8.30567 7.94082C8.30567 7.94082 9.77539 7.4619 13.1193 9.78058C14.515 9.38343 16.0132 9.18485 17.5 9.17901C18.9868 9.18485 20.485 9.38343 21.8807 9.78058C25.2246 7.4619 26.6886 7.94082 26.6886 7.94082C27.6457 10.4114 27.0475 12.2394 26.8652 12.6892C27.9875 13.9449 28.6597 15.5452 28.6597 17.5076C28.6597 24.3994 24.5695 25.9121 20.673 26.3618C21.2996 26.9108 21.8579 28.0088 21.8579 29.6792C21.8579 32.0797 21.8408 34.0129 21.8408 34.6028C21.8408 35.0817 22.1541 35.6424 23.0428 35.4672C29.9927 33.0901 35 26.3676 35 18.4421C35 8.53071 27.1672 0.5 17.5 0.5Z" fill="#808080"/>
</svg>
