<svg width="36" height="36" viewBox="0 0 36 36" fill="none" xmlns="http://www.w3.org/2000/svg">
<path fill-rule="evenodd" clip-rule="evenodd" d="M30.834 34.4961H5.17188C3.14719 34.4961 1.50586 32.8548 1.50586 30.8301V5.16797C1.50586 3.14328 3.14719 1.50195 5.17188 1.50195H30.834C32.8587 1.50195 34.5 3.14328 34.5 5.16797V30.8301C34.5 32.8548 32.8587 34.4961 30.834 34.4961ZM25.0196 29.9136H29.9157V19.8556C29.9157 15.5999 27.5033 13.5422 24.1337 13.5422C20.7626 13.5422 19.3439 16.1674 19.3439 16.1674V14.0276H14.6253V29.9136H19.3439V21.5744C19.3439 19.34 20.3724 18.0103 22.3411 18.0103C24.1508 18.0103 25.0196 19.288 25.0196 21.5744V29.9136ZM6.08659 9.01597C6.08659 10.6348 7.38897 11.9474 8.99619 11.9474C10.6034 11.9474 11.905 10.6348 11.905 9.01597C11.905 7.39713 10.6034 6.08453 8.99619 6.08453C7.38897 6.08453 6.08659 7.39713 6.08659 9.01597ZM11.4799 29.9136H6.55976V14.0276H11.4799V29.9136Z" fill="#808080"/>
</svg>
