<svg width="35" height="36" viewBox="0 0 35 36" fill="none" xmlns="http://www.w3.org/2000/svg">
<path d="M22.7975 0.5H12.2025C8.68875 0.5 6.93204 0.5 5.04087 1.09791C2.97588 1.84955 1.34954 3.47588 0.597918 5.54087C0 7.43204 0 9.18904 0 12.7025V23.2975C0 26.8112 0 28.5677 0.597918 30.4591C1.34954 32.5241 2.97588 34.1505 5.04087 34.9018C6.93204 35.5 8.68875 35.5 12.2025 35.5H22.7975C26.3112 35.5 28.0677 35.5 29.9591 34.9018C32.0241 34.1505 33.6505 32.5241 34.4021 30.4591C35 28.5677 35 26.8112 35 23.2975V12.7025C35 9.18904 35 7.43204 34.4021 5.54087C33.6505 3.47588 32.0241 1.84955 29.9591 1.09791C28.0677 0.5 26.3112 0.5 22.7975 0.5Z" fill="#808080"/>
<g clip-path="url(#clip0_90_267)">
<path d="M23.8428 17.1013C23.7288 17.0466 23.6131 16.9941 23.4958 16.9437C23.2916 13.1812 21.2357 11.0272 17.7836 11.0051C17.768 11.005 17.7524 11.005 17.7368 11.005C15.6719 11.005 13.9547 11.8864 12.8977 13.4902L14.7963 14.7926C15.5859 13.5946 16.8251 13.3392 17.7377 13.3392C17.7482 13.3392 17.7588 13.3392 17.7692 13.3393C18.9059 13.3465 19.7636 13.677 20.3188 14.3215C20.7227 14.7907 20.9929 15.4391 21.1267 16.2574C20.119 16.0861 19.0291 16.0334 17.8639 16.1002C14.5818 16.2893 12.4718 18.2035 12.6135 20.8634C12.6854 22.2126 13.3576 23.3733 14.5061 24.1315C15.4771 24.7725 16.7278 25.086 18.0275 25.015C19.744 24.9209 21.0906 24.266 22.0301 23.0685C22.7435 22.1591 23.1948 20.9806 23.394 19.4957C24.2121 19.9894 24.8183 20.639 25.1531 21.42C25.7225 22.7476 25.7557 24.9292 23.9756 26.7077C22.416 28.2658 20.5413 28.9399 17.708 28.9607C14.5652 28.9374 12.1883 27.9295 10.643 25.9649C9.19584 24.1253 8.44796 21.4682 8.42006 18.0674C8.44796 14.6665 9.19584 12.0094 10.643 10.1698C12.1883 8.20527 14.5652 7.19738 17.708 7.17402C20.8736 7.19756 23.2919 8.2103 24.8964 10.1843C25.6832 11.1524 26.2764 12.3697 26.6674 13.7891L28.8923 13.1955C28.4183 11.4484 27.6724 9.94288 26.6575 8.69429C24.6005 6.16352 21.592 4.86673 17.7158 4.83984H17.7002C13.8318 4.86664 10.8571 6.16836 8.85865 8.7088C7.08032 10.9695 6.163 14.1151 6.13218 18.0581L6.13208 18.0674L6.13218 18.0767C6.163 22.0197 7.08032 25.1653 8.85865 27.426C10.8571 29.9664 13.8318 31.2682 17.7002 31.2949H17.7158C21.155 31.2711 23.5792 30.3706 25.5763 28.3754C28.1891 25.765 28.1105 22.493 27.2493 20.4843C26.6315 19.0439 25.4535 17.874 23.8428 17.1013ZM17.9047 22.6842C16.4662 22.7652 14.9717 22.1196 14.898 20.7366C14.8434 19.7112 15.6278 18.567 17.9929 18.4307C18.2638 18.4151 18.5296 18.4074 18.7907 18.4074C19.6498 18.4074 20.4535 18.4909 21.1842 18.6506C20.9116 22.0542 19.313 22.6069 17.9047 22.6842Z" fill="#F0F0F0"/>
</g>
<defs>
<clipPath id="clip0_90_267">
<rect width="26.4551" height="26.4551" fill="white" transform="translate(4.34082 4.83984)"/>
</clipPath>
</defs>
</svg>
