<svg width="310" height="222" viewBox="0 0 310 222" fill="none" xmlns="http://www.w3.org/2000/svg">
<path d="M0 2.19434H237C239.761 2.19434 242 4.43291 242 7.19434C242 9.95576 239.761 12.1943 237 12.1943H0V2.19434Z" fill="url(#paint0_linear_564_693)" fill-opacity="0.43"/>
<path d="M250.695 11.4446V3.44458H252.387V6.74536H255.82V3.44458H257.508V11.4446H255.82V8.13989H252.387V11.4446H250.695ZM258.532 4.83911V3.44458H265.102V4.83911H262.653V11.4446H260.981V4.83911H258.532ZM266.118 3.44458H268.204L270.407 8.81958H270.501L272.704 3.44458H274.79V11.4446H273.149V6.23755H273.083L271.013 11.4055H269.895L267.825 6.21802H267.759V11.4446H266.118V3.44458ZM276.117 11.4446V3.44458H277.809V10.05H281.239V11.4446H276.117ZM284.07 10.3508L284.027 10.7805C283.993 11.1243 283.928 11.4667 283.832 11.8079C283.738 12.1516 283.639 12.4628 283.535 12.7415C283.433 13.0201 283.351 13.2389 283.289 13.3977H282.211C282.25 13.2441 282.303 13.0292 282.371 12.7532C282.438 12.4797 282.502 12.1724 282.562 11.8313C282.622 11.4902 282.66 11.1425 282.675 10.7883L282.695 10.3508H284.07ZM294.719 6.24536H293.008C292.977 6.02401 292.913 5.82739 292.817 5.65552C292.721 5.48104 292.597 5.3326 292.446 5.2102C292.295 5.08781 292.12 4.99406 291.922 4.92895C291.727 4.86385 291.515 4.8313 291.286 4.8313C290.872 4.8313 290.511 4.93416 290.204 5.13989C289.896 5.34302 289.658 5.63989 289.489 6.03052C289.319 6.41854 289.235 6.88989 289.235 7.44458C289.235 8.01489 289.319 8.49406 289.489 8.88208C289.661 9.2701 289.9 9.56307 290.208 9.76099C290.515 9.9589 290.87 10.0579 291.274 10.0579C291.5 10.0579 291.71 10.0279 291.903 9.96802C292.098 9.90812 292.271 9.82088 292.422 9.7063C292.573 9.58911 292.698 9.44718 292.797 9.28052C292.899 9.11385 292.969 8.92375 293.008 8.71021L294.719 8.71802C294.675 9.08521 294.564 9.43937 294.387 9.78052C294.213 10.1191 293.977 10.4224 293.68 10.6907C293.386 10.9563 293.034 11.1672 292.625 11.3235C292.219 11.4771 291.76 11.554 291.247 11.554C290.533 11.554 289.895 11.3925 289.333 11.0696C288.773 10.7467 288.33 10.2792 288.004 9.66724C287.681 9.05526 287.52 8.31437 287.52 7.44458C287.52 6.57218 287.684 5.83 288.012 5.21802C288.34 4.60604 288.786 4.13989 289.348 3.81958C289.911 3.49666 290.543 3.3352 291.247 3.3352C291.71 3.3352 292.14 3.40031 292.536 3.53052C292.934 3.66073 293.287 3.85083 293.594 4.10083C293.902 4.34823 294.152 4.65161 294.344 5.01099C294.54 5.37036 294.665 5.78182 294.719 6.24536ZM300.206 5.74536C300.175 5.43026 300.041 5.18547 299.804 5.01099C299.567 4.83651 299.245 4.74927 298.839 4.74927C298.563 4.74927 298.33 4.78833 298.14 4.86645C297.949 4.94198 297.804 5.04744 297.702 5.18286C297.603 5.31828 297.554 5.47192 297.554 5.6438C297.548 5.78703 297.578 5.91203 297.643 6.0188C297.711 6.12557 297.804 6.21802 297.921 6.29614C298.038 6.37166 298.173 6.43807 298.327 6.49536C298.481 6.55005 298.645 6.59692 298.819 6.63599L299.538 6.80786C299.887 6.88599 300.207 6.99015 300.499 7.12036C300.791 7.25057 301.043 7.41073 301.257 7.60083C301.47 7.79093 301.636 8.01489 301.753 8.2727C301.873 8.53052 301.934 8.82609 301.936 9.15942C301.934 9.64901 301.809 10.0735 301.561 10.4329C301.317 10.7896 300.962 11.067 300.499 11.2649C300.038 11.4602 299.482 11.5579 298.831 11.5579C298.185 11.5579 297.623 11.4589 297.143 11.261C296.667 11.0631 296.295 10.7701 296.026 10.3821C295.761 9.99146 295.621 9.50838 295.608 8.93286H297.245C297.263 9.20109 297.34 9.42505 297.475 9.60474C297.614 9.78182 297.797 9.91593 298.026 10.0071C298.258 10.0956 298.52 10.1399 298.811 10.1399C299.098 10.1399 299.347 10.0982 299.558 10.0149C299.771 9.93156 299.936 9.81567 300.054 9.66724C300.171 9.5188 300.229 9.34823 300.229 9.15552C300.229 8.97583 300.176 8.82479 300.069 8.70239C299.965 8.58 299.811 8.47583 299.608 8.38989C299.408 8.30395 299.162 8.22583 298.87 8.15552L297.999 7.93677C297.324 7.7727 296.792 7.51619 296.401 7.16724C296.011 6.81828 295.817 6.34823 295.819 5.75708C295.817 5.2727 295.946 4.84953 296.206 4.48755C296.469 4.12557 296.83 3.84302 297.288 3.63989C297.746 3.43677 298.267 3.3352 298.85 3.3352C299.444 3.3352 299.962 3.43677 300.405 3.63989C300.85 3.84302 301.197 4.12557 301.444 4.48755C301.692 4.84953 301.819 5.2688 301.827 5.74536H300.206ZM307.348 5.74536C307.317 5.43026 307.183 5.18547 306.946 5.01099C306.709 4.83651 306.387 4.74927 305.981 4.74927C305.705 4.74927 305.472 4.78833 305.282 4.86645C305.091 4.94198 304.946 5.04744 304.844 5.18286C304.745 5.31828 304.696 5.47192 304.696 5.6438C304.69 5.78703 304.72 5.91203 304.785 6.0188C304.853 6.12557 304.946 6.21802 305.063 6.29614C305.18 6.37166 305.315 6.43807 305.469 6.49536C305.623 6.55005 305.787 6.59692 305.961 6.63599L306.68 6.80786C307.029 6.88599 307.349 6.99015 307.641 7.12036C307.933 7.25057 308.185 7.41073 308.399 7.60083C308.612 7.79093 308.778 8.01489 308.895 8.2727C309.015 8.53052 309.076 8.82609 309.078 9.15942C309.076 9.64901 308.951 10.0735 308.703 10.4329C308.459 10.7896 308.104 11.067 307.641 11.2649C307.18 11.4602 306.624 11.5579 305.973 11.5579C305.327 11.5579 304.765 11.4589 304.285 11.261C303.809 11.0631 303.437 10.7701 303.168 10.3821C302.903 9.99146 302.763 9.50838 302.75 8.93286H304.387C304.405 9.20109 304.482 9.42505 304.618 9.60474C304.756 9.78182 304.939 9.91593 305.168 10.0071C305.4 10.0956 305.662 10.1399 305.953 10.1399C306.24 10.1399 306.489 10.0982 306.7 10.0149C306.913 9.93156 307.078 9.81567 307.196 9.66724C307.313 9.5188 307.371 9.34823 307.371 9.15552C307.371 8.97583 307.318 8.82479 307.211 8.70239C307.107 8.58 306.953 8.47583 306.75 8.38989C306.55 8.30395 306.304 8.22583 306.012 8.15552L305.141 7.93677C304.466 7.7727 303.934 7.51619 303.543 7.16724C303.153 6.81828 302.959 6.34823 302.961 5.75708C302.959 5.2727 303.088 4.84953 303.348 4.48755C303.611 4.12557 303.972 3.84302 304.43 3.63989C304.888 3.43677 305.409 3.3352 305.993 3.3352C306.586 3.3352 307.104 3.43677 307.547 3.63989C307.993 3.84302 308.339 4.12557 308.586 4.48755C308.834 4.84953 308.961 5.2688 308.969 5.74536H307.348Z" fill="#0D0D0D"/>
<path d="M0 37.1943H164.095C166.856 37.1943 169.095 39.4329 169.095 42.1943C169.095 44.9558 166.856 47.1943 164.095 47.1943H0V37.1943Z" fill="url(#paint1_linear_564_693)" fill-opacity="0.43"/>
<path d="M175.695 46.1943V38.1943H178.852C179.458 38.1943 179.975 38.3102 180.402 38.542C180.829 38.7712 181.155 39.0902 181.379 39.499C181.605 39.9053 181.719 40.374 181.719 40.9053C181.719 41.4365 181.604 41.9053 181.375 42.3115C181.146 42.7178 180.814 43.0342 180.379 43.2607C179.947 43.4873 179.423 43.6006 178.809 43.6006H176.797V42.2451H178.535C178.861 42.2451 179.129 42.1891 179.34 42.0771C179.553 41.9626 179.712 41.805 179.816 41.6045C179.923 41.4014 179.977 41.1683 179.977 40.9053C179.977 40.6396 179.923 40.4079 179.816 40.21C179.712 40.0094 179.553 39.8545 179.34 39.7451C179.126 39.6331 178.855 39.5771 178.527 39.5771H177.387V46.1943H175.695ZM182.751 46.1943V38.1943H184.443V41.4951H187.876V38.1943H189.564V46.1943H187.876V42.8896H184.443V46.1943H182.751ZM190.892 46.1943V38.1943H194.049C194.655 38.1943 195.172 38.3102 195.599 38.542C196.027 38.7712 196.352 39.0902 196.576 39.499C196.803 39.9053 196.916 40.374 196.916 40.9053C196.916 41.4365 196.801 41.9053 196.572 42.3115C196.343 42.7178 196.011 43.0342 195.576 43.2607C195.144 43.4873 194.62 43.6006 194.006 43.6006H191.994V42.2451H193.732C194.058 42.2451 194.326 42.1891 194.537 42.0771C194.75 41.9626 194.909 41.805 195.014 41.6045C195.12 41.4014 195.174 41.1683 195.174 40.9053C195.174 40.6396 195.12 40.4079 195.014 40.21C194.909 40.0094 194.75 39.8545 194.537 39.7451C194.323 39.6331 194.053 39.5771 193.724 39.5771H192.584V46.1943H190.892Z" fill="#0D0D0D"/>
<path d="M0 72.1943H87.1786C89.94 72.1943 92.1786 74.4329 92.1786 77.1943C92.1786 79.9558 89.94 82.1943 87.1786 82.1943H0V72.1943Z" fill="url(#paint2_linear_564_693)" fill-opacity="0.43"/>
<path d="M104.093 73.1943H105.764V78.7725C105.764 79.2881 105.649 79.736 105.417 80.1162C105.188 80.4964 104.869 80.7894 104.46 80.9951C104.051 81.2008 103.576 81.3037 103.034 81.3037C102.552 81.3037 102.115 81.2191 101.721 81.0498C101.331 80.8779 101.021 80.6175 100.792 80.2686C100.563 79.917 100.449 79.4756 100.452 78.9443H102.135C102.141 79.1553 102.184 79.3363 102.264 79.4873C102.348 79.6357 102.461 79.7503 102.604 79.8311C102.75 79.9092 102.922 79.9482 103.12 79.9482C103.328 79.9482 103.504 79.904 103.647 79.8154C103.793 79.7243 103.904 79.5915 103.979 79.417C104.055 79.2425 104.093 79.0277 104.093 78.7725V73.1943ZM108.476 81.1943H106.663L109.425 73.1943H111.605L114.362 81.1943H112.55L110.546 75.0225H110.484L108.476 81.1943ZM108.362 78.0498H112.644V79.3701H108.362V78.0498ZM115.706 73.1943L117.639 79.2725H117.713L119.651 73.1943H121.526L118.768 81.1943H116.588L113.827 73.1943H115.706ZM122.738 81.1943H120.926L123.687 73.1943H125.867L128.625 81.1943H126.812L124.809 75.0225H124.746L122.738 81.1943ZM122.625 78.0498H126.906V79.3701H122.625V78.0498ZM133.679 75.4951C133.648 75.18 133.514 74.9352 133.277 74.7607C133.04 74.5863 132.718 74.499 132.312 74.499C132.036 74.499 131.803 74.5381 131.613 74.6162C131.423 74.6917 131.277 74.7972 131.175 74.9326C131.076 75.068 131.027 75.2217 131.027 75.3936C131.022 75.5368 131.052 75.6618 131.117 75.7686C131.184 75.8753 131.277 75.9678 131.394 76.0459C131.511 76.1214 131.647 76.1878 131.8 76.2451C131.954 76.2998 132.118 76.3467 132.292 76.3857L133.011 76.5576C133.36 76.6357 133.68 76.7399 133.972 76.8701C134.264 77.0003 134.516 77.1605 134.73 77.3506C134.943 77.5407 135.109 77.7646 135.226 78.0225C135.346 78.2803 135.407 78.5758 135.41 78.9092C135.407 79.3988 135.282 79.8232 135.035 80.1826C134.79 80.5394 134.436 80.8167 133.972 81.0146C133.511 81.21 132.955 81.3076 132.304 81.3076C131.658 81.3076 131.096 81.2087 130.617 81.0107C130.14 80.8128 129.768 80.5199 129.499 80.1318C129.234 79.7412 129.094 79.2581 129.081 78.6826H130.718C130.736 78.9508 130.813 79.1748 130.949 79.3545C131.087 79.5316 131.27 79.6657 131.499 79.7568C131.731 79.8454 131.993 79.8896 132.285 79.8896C132.571 79.8896 132.82 79.848 133.031 79.7646C133.244 79.6813 133.41 79.5654 133.527 79.417C133.644 79.2686 133.703 79.098 133.703 78.9053C133.703 78.7256 133.649 78.5745 133.542 78.4521C133.438 78.3298 133.285 78.2256 133.081 78.1396C132.881 78.0537 132.635 77.9756 132.343 77.9053L131.472 77.6865C130.798 77.5225 130.265 77.266 129.874 76.917C129.484 76.568 129.29 76.098 129.292 75.5068C129.29 75.0225 129.419 74.5993 129.679 74.2373C129.942 73.8753 130.303 73.5928 130.761 73.3896C131.219 73.1865 131.74 73.085 132.324 73.085C132.917 73.085 133.436 73.1865 133.878 73.3896C134.324 73.5928 134.67 73.8753 134.917 74.2373C135.165 74.5993 135.292 75.0186 135.3 75.4951H133.679ZM143.54 75.9951H141.829C141.798 75.7738 141.734 75.5771 141.638 75.4053C141.541 75.2308 141.417 75.0824 141.266 74.96C141.115 74.8376 140.941 74.7438 140.743 74.6787C140.548 74.6136 140.335 74.5811 140.106 74.5811C139.692 74.5811 139.332 74.6839 139.024 74.8896C138.717 75.0928 138.479 75.3896 138.309 75.7803C138.14 76.1683 138.055 76.6396 138.055 77.1943C138.055 77.7646 138.14 78.2438 138.309 78.6318C138.481 79.0199 138.721 79.3128 139.028 79.5107C139.335 79.7087 139.691 79.8076 140.095 79.8076C140.321 79.8076 140.531 79.7777 140.723 79.7178C140.919 79.6579 141.092 79.5706 141.243 79.4561C141.394 79.3389 141.519 79.1969 141.618 79.0303C141.72 78.8636 141.79 78.6735 141.829 78.46L143.54 78.4678C143.496 78.835 143.385 79.1891 143.208 79.5303C143.033 79.8688 142.798 80.1722 142.501 80.4404C142.207 80.7061 141.855 80.917 141.446 81.0732C141.04 81.2269 140.58 81.3037 140.067 81.3037C139.354 81.3037 138.716 81.1423 138.153 80.8193C137.593 80.4964 137.151 80.029 136.825 79.417C136.502 78.805 136.341 78.0641 136.341 77.1943C136.341 76.3219 136.505 75.5798 136.833 74.9678C137.161 74.3558 137.606 73.8896 138.169 73.5693C138.731 73.2464 139.364 73.085 140.067 73.085C140.531 73.085 140.96 73.1501 141.356 73.2803C141.755 73.4105 142.108 73.6006 142.415 73.8506C142.722 74.098 142.972 74.4014 143.165 74.7607C143.36 75.1201 143.485 75.5316 143.54 75.9951ZM144.687 81.1943V73.1943H147.843C148.447 73.1943 148.963 73.3024 149.39 73.5186C149.82 73.7321 150.146 74.0355 150.37 74.4287C150.597 74.8193 150.71 75.279 150.71 75.8076C150.71 76.3389 150.596 76.7959 150.366 77.1787C150.137 77.5589 149.805 77.8506 149.37 78.0537C148.938 78.2568 148.415 78.3584 147.8 78.3584H145.687V76.999H147.527C147.85 76.999 148.118 76.9548 148.331 76.8662C148.545 76.7777 148.704 76.6449 148.808 76.4678C148.915 76.2907 148.968 76.0706 148.968 75.8076C148.968 75.542 148.915 75.318 148.808 75.1357C148.704 74.9535 148.544 74.8154 148.327 74.7217C148.114 74.6253 147.844 74.5771 147.519 74.5771H146.378V81.1943H144.687ZM149.007 77.5537L150.995 81.1943H149.128L147.183 77.5537H149.007ZM153.531 73.1943V81.1943H151.84V73.1943H153.531ZM154.857 81.1943V73.1943H158.013C158.62 73.1943 159.136 73.3102 159.564 73.542C159.991 73.7712 160.316 74.0902 160.54 74.499C160.767 74.9053 160.88 75.374 160.88 75.9053C160.88 76.4365 160.765 76.9053 160.536 77.3115C160.307 77.7178 159.975 78.0342 159.54 78.2607C159.108 78.4873 158.584 78.6006 157.97 78.6006H155.958V77.2451H157.696C158.022 77.2451 158.29 77.1891 158.501 77.0771C158.715 76.9626 158.873 76.805 158.978 76.6045C159.084 76.4014 159.138 76.1683 159.138 75.9053C159.138 75.6396 159.084 75.4079 158.978 75.21C158.873 75.0094 158.715 74.8545 158.501 74.7451C158.288 74.6331 158.017 74.5771 157.689 74.5771H156.548V81.1943H154.857ZM161.608 74.5889V73.1943H168.178V74.5889H165.729V81.1943H164.057V74.5889H161.608Z" fill="#0D0D0D"/>
<path d="M0 107.194H189.335C192.097 107.194 194.335 109.433 194.335 112.194C194.335 114.956 192.097 117.194 189.335 117.194H0V107.194Z" fill="url(#paint3_linear_564_693)" fill-opacity="0.43"/>
<path d="M201.227 108.194H203.121L204.945 111.64H205.023L206.848 108.194H208.742L205.824 113.366V116.194H204.145V113.366L201.227 108.194ZM210.163 116.194H208.35L211.112 108.194H213.291L216.049 116.194H214.237L212.233 110.022H212.17L210.163 116.194ZM210.049 113.05H214.33V114.37H210.049V113.05ZM216.946 108.194H219.032L221.235 113.569H221.329L223.532 108.194H225.618V116.194H223.977V110.987H223.911L221.841 116.155H220.723L218.653 110.968H218.587V116.194H216.946V108.194ZM226.946 116.194V108.194H228.637V114.8H232.067V116.194H226.946Z" fill="#0D0D0D"/>
<path d="M0 142.194H174.548C177.31 142.194 179.548 144.433 179.548 147.194C179.548 149.956 177.31 152.194 174.548 152.194H0V142.194Z" fill="url(#paint4_linear_564_693)" fill-opacity="0.43"/>
<path d="M189.035 145.495C189.004 145.18 188.87 144.935 188.633 144.761C188.396 144.586 188.074 144.499 187.668 144.499C187.392 144.499 187.159 144.538 186.969 144.616C186.779 144.692 186.633 144.797 186.531 144.933C186.432 145.068 186.383 145.222 186.383 145.394C186.378 145.537 186.408 145.662 186.473 145.769C186.54 145.875 186.633 145.968 186.75 146.046C186.867 146.121 187.003 146.188 187.156 146.245C187.31 146.3 187.474 146.347 187.648 146.386L188.367 146.558C188.716 146.636 189.036 146.74 189.328 146.87C189.62 147 189.872 147.16 190.086 147.351C190.299 147.541 190.465 147.765 190.582 148.022C190.702 148.28 190.763 148.576 190.766 148.909C190.763 149.399 190.638 149.823 190.391 150.183C190.146 150.539 189.792 150.817 189.328 151.015C188.867 151.21 188.311 151.308 187.66 151.308C187.014 151.308 186.452 151.209 185.973 151.011C185.496 150.813 185.124 150.52 184.855 150.132C184.59 149.741 184.451 149.258 184.437 148.683H186.074C186.092 148.951 186.169 149.175 186.305 149.354C186.443 149.532 186.626 149.666 186.855 149.757C187.087 149.845 187.349 149.89 187.641 149.89C187.927 149.89 188.176 149.848 188.387 149.765C188.6 149.681 188.766 149.565 188.883 149.417C189 149.269 189.059 149.098 189.059 148.905C189.059 148.726 189.005 148.575 188.898 148.452C188.794 148.33 188.641 148.226 188.438 148.14C188.237 148.054 187.991 147.976 187.699 147.905L186.828 147.687C186.154 147.522 185.621 147.266 185.23 146.917C184.84 146.568 184.646 146.098 184.648 145.507C184.646 145.022 184.775 144.599 185.035 144.237C185.298 143.875 185.659 143.593 186.117 143.39C186.576 143.187 187.096 143.085 187.68 143.085C188.273 143.085 188.792 143.187 189.234 143.39C189.68 143.593 190.026 143.875 190.273 144.237C190.521 144.599 190.648 145.019 190.656 145.495H189.035ZM194.857 148.413H196.294L197.017 149.343L197.728 150.171L199.068 151.851H197.49L196.568 150.718L196.095 150.046L194.857 148.413ZM199.189 147.194C199.189 148.067 199.024 148.809 198.693 149.421C198.365 150.033 197.917 150.5 197.349 150.823C196.784 151.144 196.149 151.304 195.443 151.304C194.732 151.304 194.094 151.142 193.529 150.819C192.964 150.496 192.517 150.029 192.189 149.417C191.861 148.805 191.697 148.064 191.697 147.194C191.697 146.322 191.861 145.58 192.189 144.968C192.517 144.356 192.964 143.89 193.529 143.569C194.094 143.246 194.732 143.085 195.443 143.085C196.149 143.085 196.784 143.246 197.349 143.569C197.917 143.89 198.365 144.356 198.693 144.968C199.024 145.58 199.189 146.322 199.189 147.194ZM197.474 147.194C197.474 146.629 197.389 146.153 197.22 145.765C197.053 145.377 196.818 145.082 196.513 144.882C196.208 144.681 195.852 144.581 195.443 144.581C195.034 144.581 194.677 144.681 194.372 144.882C194.068 145.082 193.831 145.377 193.662 145.765C193.495 146.153 193.412 146.629 193.412 147.194C193.412 147.759 193.495 148.236 193.662 148.624C193.831 149.012 194.068 149.306 194.372 149.507C194.677 149.707 195.034 149.808 195.443 149.808C195.852 149.808 196.208 149.707 196.513 149.507C196.818 149.306 197.053 149.012 197.22 148.624C197.389 148.236 197.474 147.759 197.474 147.194ZM200.376 151.194V143.194H202.067V149.8H205.497V151.194H200.376Z" fill="#0D0D0D"/>
<path d="M0 177.111H102.759C105.521 177.111 107.759 179.349 107.759 182.111C107.759 184.872 105.521 187.111 102.759 187.111H0V177.111Z" fill="url(#paint5_linear_564_693)" fill-opacity="0.43"/>
<path d="M113.695 186.194V178.194H116.852C117.458 178.194 117.975 178.31 118.402 178.542C118.829 178.771 119.155 179.09 119.379 179.499C119.605 179.905 119.719 180.374 119.719 180.905C119.719 181.437 119.604 181.905 119.375 182.312C119.146 182.718 118.814 183.034 118.379 183.261C117.947 183.487 117.423 183.601 116.809 183.601H114.797V182.245H116.535C116.861 182.245 117.129 182.189 117.34 182.077C117.553 181.963 117.712 181.805 117.816 181.604C117.923 181.401 117.977 181.168 117.977 180.905C117.977 180.64 117.923 180.408 117.816 180.21C117.712 180.009 117.553 179.854 117.34 179.745C117.126 179.633 116.855 179.577 116.527 179.577H115.387V186.194H113.695ZM120.283 178.194H122.177L124.001 181.64H124.08L125.904 178.194H127.798L124.88 183.366V186.194H123.201V183.366L120.283 178.194ZM128.856 179.589V178.194H135.427V179.589H132.977V186.194H131.306V179.589H128.856ZM136.443 186.194V178.194H138.134V181.495H141.568V178.194H143.255V186.194H141.568V182.89H138.134V186.194H136.443ZM151.935 182.194C151.935 183.067 151.77 183.809 151.439 184.421C151.111 185.033 150.663 185.5 150.095 185.823C149.53 186.144 148.895 186.304 148.189 186.304C147.478 186.304 146.84 186.142 146.275 185.819C145.71 185.496 145.263 185.029 144.935 184.417C144.607 183.805 144.443 183.064 144.443 182.194C144.443 181.322 144.607 180.58 144.935 179.968C145.263 179.356 145.71 178.89 146.275 178.569C146.84 178.246 147.478 178.085 148.189 178.085C148.895 178.085 149.53 178.246 150.095 178.569C150.663 178.89 151.111 179.356 151.439 179.968C151.77 180.58 151.935 181.322 151.935 182.194ZM150.22 182.194C150.22 181.629 150.136 181.153 149.966 180.765C149.8 180.377 149.564 180.082 149.259 179.882C148.955 179.681 148.598 179.581 148.189 179.581C147.78 179.581 147.424 179.681 147.119 179.882C146.814 180.082 146.577 180.377 146.408 180.765C146.241 181.153 146.158 181.629 146.158 182.194C146.158 182.759 146.241 183.236 146.408 183.624C146.577 184.012 146.814 184.306 147.119 184.507C147.424 184.707 147.78 184.808 148.189 184.808C148.598 184.808 148.955 184.707 149.259 184.507C149.564 184.306 149.8 184.012 149.966 183.624C150.136 183.236 150.22 182.759 150.22 182.194ZM159.814 178.194V186.194H158.353L154.872 181.159H154.814V186.194H153.122V178.194H154.607L158.06 183.226H158.13V178.194H159.814Z" fill="#0D0D0D"/>
<path d="M0 211.556H135C137.761 211.556 140 213.794 140 216.556C140 219.317 137.761 221.556 135 221.556H0V211.556Z" fill="url(#paint6_linear_564_693)" fill-opacity="0.43"/>
<path d="M149.898 213.111H151.57V218.689C151.57 219.205 151.454 219.653 151.223 220.033C150.993 220.413 150.674 220.706 150.266 220.912C149.857 221.118 149.382 221.221 148.84 221.221C148.358 221.221 147.921 221.136 147.527 220.967C147.137 220.795 146.827 220.535 146.598 220.186C146.368 219.834 146.255 219.393 146.258 218.861H147.941C147.947 219.072 147.99 219.253 148.07 219.404C148.154 219.553 148.267 219.667 148.41 219.748C148.556 219.826 148.728 219.865 148.926 219.865C149.134 219.865 149.31 219.821 149.453 219.732C149.599 219.641 149.71 219.508 149.785 219.334C149.861 219.16 149.898 218.945 149.898 218.689V213.111ZM154.282 221.111H152.469L155.231 213.111H157.411L160.168 221.111H158.356L156.352 214.939H156.289L154.282 221.111ZM154.168 217.967H158.45V219.287H154.168V217.967ZM161.512 213.111L163.445 219.189H163.519L165.457 213.111H167.332L164.574 221.111H162.394L159.633 213.111H161.512ZM168.544 221.111H166.732L169.493 213.111H171.673L174.431 221.111H172.618L170.615 214.939H170.552L168.544 221.111ZM168.431 217.967H172.712V219.287H168.431V217.967Z" fill="#0D0D0D"/>
<defs>
<linearGradient id="paint0_linear_564_693" x1="211.684" y1="7.52779" x2="41.2198" y2="7.52777" gradientUnits="userSpaceOnUse">
<stop stop-color="#FFB800" stop-opacity="0.43"/>
<stop offset="0.479167" stop-color="#E93F3F" stop-opacity="0.23"/>
<stop offset="1" stop-color="#3F64E9" stop-opacity="0.43"/>
</linearGradient>
<linearGradient id="paint1_linear_564_693" x1="49.3194" y1="42.5276" x2="140.067" y2="42.5276" gradientUnits="userSpaceOnUse">
<stop stop-color="#3F64E9" stop-opacity="0.43"/>
<stop offset="1" stop-color="#E93F3F" stop-opacity="0.23"/>
</linearGradient>
<linearGradient id="paint2_linear_564_693" x1="26.8854" y1="77.5276" x2="76.3546" y2="77.5276" gradientUnits="userSpaceOnUse">
<stop stop-color="#3F64E9" stop-opacity="0.43"/>
</linearGradient>
<linearGradient id="paint3_linear_564_693" x1="56.6811" y1="112.528" x2="199.421" y2="112.528" gradientUnits="userSpaceOnUse">
<stop stop-color="#3F64E9" stop-opacity="0.43"/>
<stop offset="0.765625" stop-color="#E93F3F" stop-opacity="0.23"/>
<stop offset="1" stop-color="#FFB800" stop-opacity="0.43"/>
</linearGradient>
<linearGradient id="paint4_linear_564_693" x1="52.3683" y1="147.528" x2="184.247" y2="147.528" gradientUnits="userSpaceOnUse">
<stop stop-color="#3F64E9" stop-opacity="0.43"/>
<stop offset="0.890625" stop-color="#E93F3F" stop-opacity="0.23"/>
<stop offset="1" stop-color="#FFB800" stop-opacity="0.43"/>
</linearGradient>
<linearGradient id="paint5_linear_564_693" x1="31.4297" y1="182.444" x2="114.013" y2="182.444" gradientUnits="userSpaceOnUse">
<stop stop-color="#3F64E9" stop-opacity="0.43"/>
<stop offset="1" stop-color="#E93F3F" stop-opacity="0.23"/>
</linearGradient>
<linearGradient id="paint6_linear_564_693" x1="40.8333" y1="216.889" x2="115.967" y2="216.889" gradientUnits="userSpaceOnUse">
<stop stop-color="#3F64E9" stop-opacity="0.43"/>
<stop offset="1" stop-color="#E93F3F" stop-opacity="0.23"/>
</linearGradient>
</defs>
</svg>
