<svg width="30" height="30" viewBox="0 0 30 30" fill="none" xmlns="http://www.w3.org/2000/svg">
<g clip-path="url(#clip0_557_872)">
<path d="M8.75 7.5C8.75 7.16848 8.8817 6.85054 9.11612 6.61612C9.35054 6.3817 9.66848 6.25 10 6.25H20C20.3315 6.25 20.6495 6.3817 20.8839 6.61612C21.1183 6.85054 21.25 7.16848 21.25 7.5V22.5C21.25 22.8315 21.1183 23.1495 20.8839 23.3839C20.6495 23.6183 20.3315 23.75 20 23.75H10C9.66848 23.75 9.35054 23.6183 9.11612 23.3839C8.8817 23.1495 8.75 22.8315 8.75 22.5V7.5Z" stroke="#F3F3F3" stroke-width="1.5" stroke-linecap="round" stroke-linejoin="round"/>
<path d="M27.5 21.25H26.25C25.9185 21.25 25.6005 21.1183 25.3661 20.8839C25.1317 20.6495 25 20.3315 25 20V10C25 9.66848 25.1317 9.35054 25.3661 9.11612C25.6005 8.8817 25.9185 8.75 26.25 8.75H27.5" stroke="#F3F3F3" stroke-width="1.5" stroke-linecap="round" stroke-linejoin="round"/>
<path d="M2.5 21.25H3.75C4.08152 21.25 4.39946 21.1183 4.63388 20.8839C4.8683 20.6495 5 20.3315 5 20V10C5 9.66848 4.8683 9.35054 4.63388 9.11612C4.39946 8.8817 4.08152 8.75 3.75 8.75H2.5" stroke="#F3F3F3" stroke-width="1.5" stroke-linecap="round" stroke-linejoin="round"/>
</g>
<defs>
<clipPath id="clip0_557_872">
<rect width="30" height="30" fill="white"/>
</clipPath>
</defs>
</svg>
