<svg width="492" height="147" viewBox="0 0 492 147" fill="none" xmlns="http://www.w3.org/2000/svg">
<path d="M137.988 145H105.371L94.9219 111.016H42.9688L32.6172 145H0L50.3906 1.64062H87.4023L137.988 145ZM87.793 85.625L71.582 33.3789C70.3451 29.082 69.4987 25.8919 69.043 23.8086C66.8945 32.0768 60.7422 52.6823 50.5859 85.625H87.793ZM156.055 2.22656H201.66C219.043 2.22656 232.227 5.97005 241.211 13.457C250.195 20.944 254.688 32.2396 254.688 47.3438C254.688 62.3828 249.87 73.9714 240.234 82.1094C230.599 90.1823 216.96 94.2188 199.316 94.2188H186.328V145H156.055V2.22656ZM186.328 27.0312V69.4141H196.289C214.844 69.4141 224.121 62.2526 224.121 47.9297C224.121 40.7682 222.168 35.4948 218.262 32.1094C214.421 28.724 208.366 27.0312 200.098 27.0312H186.328ZM281.641 2.22656H327.246C344.629 2.22656 357.812 5.97005 366.797 13.457C375.781 20.944 380.273 32.2396 380.273 47.3438C380.273 62.3828 375.456 73.9714 365.82 82.1094C356.185 90.1823 342.546 94.2188 324.902 94.2188H311.914V145H281.641V2.22656ZM311.914 27.0312V69.4141H321.875C340.43 69.4141 349.707 62.2526 349.707 47.9297C349.707 40.7682 347.754 35.4948 343.848 32.1094C340.007 28.724 333.952 27.0312 325.684 27.0312H311.914ZM398.34 110.234C408.236 114.596 416.471 117.656 423.047 119.414C429.688 121.107 436.035 121.953 442.09 121.953C448.21 121.953 453.027 120.684 456.543 118.145C460.059 115.605 461.816 111.829 461.816 106.816C461.816 104.017 461.068 101.576 459.57 99.4922C458.073 97.3438 455.762 95.2279 452.637 93.1445C449.577 90.9961 443.522 87.806 434.473 83.5742C425.423 79.2773 418.75 75.2734 414.453 71.5625C404.883 63.2943 400.098 52.9427 400.098 40.5078C400.098 28.0729 404.362 18.2422 412.891 11.0156C421.484 3.78906 433.333 0.175781 448.438 0.175781C461.133 0.175781 475.26 3.52865 490.82 10.2344L481.055 33.7695C473.698 30.7747 467.48 28.6263 462.402 27.3242C457.324 26.0221 452.148 25.3711 446.875 25.3711C441.667 25.3711 437.5 26.7057 434.375 29.375C431.25 31.9792 429.688 35.4622 429.688 39.8242C429.688 42.4935 430.273 44.8372 431.445 46.8555C432.682 48.8086 434.635 50.7292 437.305 52.6172C440.039 54.4401 446.484 57.7604 456.641 62.5781C469.922 68.8932 479.036 75.306 483.984 81.8164C488.997 88.0664 491.504 95.9115 491.504 105.352C491.504 118.112 486.849 128.301 477.539 135.918C468.229 143.275 455.632 146.953 439.746 146.953C423.861 146.953 410.059 144.089 398.34 138.359V110.234Z" fill="#0D0D0D"/>
</svg>
