<svg width="39" height="39" viewBox="0 0 39 39" fill="none" xmlns="http://www.w3.org/2000/svg">
<g filter="url(#filter0_b_462_560)">
<rect x="39" y="39" width="39" height="39" rx="19.5" transform="rotate(180 39 39)" fill="white" fill-opacity="0.6"/>
<rect x="38.5" y="38.5" width="38" height="38" rx="19" transform="rotate(180 38.5 38.5)" stroke="url(#paint0_linear_462_560)" stroke-opacity="0.2"/>
<path d="M24.6484 19.6406C24.6432 19.8021 24.612 19.9505 24.5547 20.0859C24.4922 20.2214 24.3984 20.3516 24.2734 20.4766L18.2578 26.3594C18.0599 26.5573 17.8177 26.6563 17.5313 26.6563C17.3333 26.6563 17.1563 26.6094 17 26.5156C16.8385 26.4219 16.7109 26.2943 16.6172 26.1328C16.5182 25.9766 16.4688 25.8021 16.4688 25.6094C16.4688 25.3177 16.5781 25.0625 16.7969 24.8438L22.1484 19.6406L16.7969 14.4375C16.5781 14.2135 16.4688 13.9583 16.4688 13.6719C16.4688 13.474 16.5182 13.2969 16.6172 13.1406C16.7109 12.9844 16.8385 12.8594 17 12.7656C17.1563 12.6719 17.3333 12.625 17.5313 12.625C17.8177 12.625 18.0599 12.724 18.2578 12.9219L24.2734 18.8047C24.4036 18.9297 24.5 19.0599 24.5625 19.1953C24.6198 19.3359 24.6484 19.4844 24.6484 19.6406Z" fill="#0D0D0D"/>
</g>
<defs>
<filter id="filter0_b_462_560" x="-100" y="-100" width="239" height="239" filterUnits="userSpaceOnUse" color-interpolation-filters="sRGB">
<feFlood flood-opacity="0" result="BackgroundImageFix"/>
<feGaussianBlur in="BackgroundImageFix" stdDeviation="50"/>
<feComposite in2="SourceAlpha" operator="in" result="effect1_backgroundBlur_462_560"/>
<feBlend mode="normal" in="SourceGraphic" in2="effect1_backgroundBlur_462_560" result="shape"/>
</filter>
<linearGradient id="paint0_linear_462_560" x1="46.5" y1="42.5" x2="69.5" y2="75.5" gradientUnits="userSpaceOnUse">
<stop stop-color="white" stop-opacity="0.71"/>
<stop offset="0.473958" stop-color="#323232" stop-opacity="0"/>
<stop offset="0.973958" stop-color="white" stop-opacity="0.25"/>
</linearGradient>
</defs>
</svg>
