<svg width="25" height="24" viewBox="0 0 25 24" fill="none" xmlns="http://www.w3.org/2000/svg">
<g id="github" clip-path="url(#clip0_26_411)">
<path id="Vector" fill-rule="evenodd" clip-rule="evenodd" d="M12.4642 0.244904C5.84833 0.244904 0.5 5.63266 0.5 12.298C0.5 17.626 3.92686 22.1361 8.68082 23.7323C9.27518 23.8523 9.4929 23.473 9.4929 23.1539C9.4929 22.8745 9.47331 21.9167 9.47331 20.9187C6.14514 21.6372 5.45208 19.4819 5.45208 19.4819C4.91723 18.085 4.12474 17.726 4.12474 17.726C3.03543 16.9876 4.20408 16.9876 4.20408 16.9876C5.41241 17.0674 6.04645 18.2248 6.04645 18.2248C7.11592 20.0606 8.83927 19.5419 9.53257 19.2225C9.63151 18.4443 9.94865 17.9055 10.2854 17.6062C7.63094 17.3268 4.83812 16.2891 4.83812 11.6594C4.83812 10.3423 5.31323 9.26474 6.06604 8.4267C5.94727 8.12743 5.53118 6.88997 6.18506 5.23372C6.18506 5.23372 7.19527 4.91437 9.47306 6.47094C10.4483 6.20711 11.454 6.07289 12.4642 6.07176C13.4745 6.07176 14.5042 6.2116 15.4552 6.47094C17.7332 4.91437 18.7434 5.23372 18.7434 5.23372C19.3973 6.88997 18.981 8.12743 18.8622 8.4267C19.6349 9.26474 20.0904 10.3423 20.0904 11.6594C20.0904 16.2891 17.2976 17.3067 14.6233 17.6062C15.0592 17.9853 15.4353 18.7036 15.4353 19.8411C15.4353 21.4575 15.4158 22.7547 15.4158 23.1536C15.4158 23.473 15.6337 23.8523 16.2278 23.7326C20.9818 22.1358 24.4087 17.626 24.4087 12.298C24.4282 5.63266 19.0603 0.244904 12.4642 0.244904Z" fill="#181818"/>
</g>
<defs>
<clipPath id="clip0_26_411">
<rect width="24" height="23.5102" fill="white" transform="translate(0.5 0.244904)"/>
</clipPath>
</defs>
</svg>
