<svg width="641" height="222" viewBox="0 0 641 222" fill="none" xmlns="http://www.w3.org/2000/svg">
<path d="M0 2H560.64C563.401 2 565.64 4.23858 565.64 7C565.64 9.76142 563.401 12 560.64 12H0V2Z" fill="url(#paint0_linear_388_89)" fill-opacity="0.43"/>
<path d="M581.273 11V3H582.964V6.30078H586.398V3H588.085V11H586.398V7.69531H582.964V11H581.273ZM589.109 4.39453V3H595.679V4.39453H593.23V11H591.558V4.39453H589.109ZM596.695 3H598.781L600.985 8.375H601.078L603.281 3H605.367V11H603.727V5.79297H603.66L601.59 10.9609H600.473L598.402 5.77344H598.336V11H596.695V3ZM606.695 11V3H608.386V9.60547H611.816V11H606.695ZM614.647 9.90625L614.604 10.3359C614.571 10.6797 614.506 11.0221 614.409 11.3633C614.315 11.707 614.216 12.0182 614.112 12.2969C614.011 12.5755 613.929 12.7943 613.866 12.9531H612.788C612.827 12.7995 612.881 12.5846 612.948 12.3086C613.016 12.0352 613.08 11.7279 613.14 11.3867C613.2 11.0456 613.237 10.6979 613.253 10.3437L613.272 9.90625H614.647ZM625.297 5.80078H623.586C623.555 5.57943 623.491 5.38281 623.394 5.21094C623.298 5.03646 623.174 4.88802 623.023 4.76562C622.872 4.64323 622.698 4.54948 622.5 4.48437C622.305 4.41927 622.092 4.38672 621.863 4.38672C621.449 4.38672 621.088 4.48958 620.781 4.69531C620.474 4.89844 620.235 5.19531 620.066 5.58594C619.897 5.97396 619.812 6.44531 619.812 7C619.812 7.57031 619.897 8.04948 620.066 8.4375C620.238 8.82552 620.478 9.11849 620.785 9.31641C621.092 9.51432 621.448 9.61328 621.851 9.61328C622.078 9.61328 622.288 9.58333 622.48 9.52344C622.676 9.46354 622.849 9.3763 623 9.26172C623.151 9.14453 623.276 9.0026 623.375 8.83594C623.476 8.66927 623.547 8.47917 623.586 8.26562L625.297 8.27344C625.252 8.64062 625.142 8.99479 624.965 9.33594C624.79 9.67448 624.555 9.97786 624.258 10.2461C623.963 10.5117 623.612 10.7227 623.203 10.8789C622.797 11.0326 622.337 11.1094 621.824 11.1094C621.11 11.1094 620.472 10.9479 619.91 10.625C619.35 10.3021 618.907 9.83464 618.582 9.22266C618.259 8.61068 618.097 7.86979 618.097 7C618.097 6.1276 618.262 5.38542 618.59 4.77344C618.918 4.16146 619.363 3.69531 619.926 3.375C620.488 3.05208 621.121 2.89062 621.824 2.89062C622.288 2.89062 622.717 2.95573 623.113 3.08594C623.512 3.21615 623.864 3.40625 624.172 3.65625C624.479 3.90365 624.729 4.20703 624.922 4.56641C625.117 4.92578 625.242 5.33724 625.297 5.80078ZM630.783 5.30078C630.752 4.98568 630.618 4.74089 630.381 4.56641C630.144 4.39193 629.822 4.30469 629.416 4.30469C629.14 4.30469 628.907 4.34375 628.717 4.42187C628.527 4.4974 628.381 4.60286 628.28 4.73828C628.181 4.8737 628.131 5.02734 628.131 5.19922C628.126 5.34245 628.156 5.46745 628.221 5.57422C628.289 5.68099 628.381 5.77344 628.498 5.85156C628.615 5.92708 628.751 5.99349 628.905 6.05078C629.058 6.10547 629.222 6.15234 629.397 6.19141L630.115 6.36328C630.464 6.44141 630.785 6.54557 631.076 6.67578C631.368 6.80599 631.621 6.96615 631.834 7.15625C632.048 7.34635 632.213 7.57031 632.33 7.82812C632.45 8.08594 632.511 8.38151 632.514 8.71484C632.511 9.20443 632.386 9.62891 632.139 9.98828C631.894 10.3451 631.54 10.6224 631.076 10.8203C630.615 11.0156 630.059 11.1133 629.408 11.1133C628.763 11.1133 628.2 11.0143 627.721 10.8164C627.244 10.6185 626.872 10.3255 626.604 9.9375C626.338 9.54687 626.199 9.0638 626.186 8.48828H627.822C627.841 8.75651 627.918 8.98047 628.053 9.16016C628.191 9.33724 628.375 9.47135 628.604 9.5625C628.836 9.65104 629.097 9.69531 629.389 9.69531C629.675 9.69531 629.924 9.65365 630.135 9.57031C630.349 9.48698 630.514 9.37109 630.631 9.22266C630.748 9.07422 630.807 8.90365 630.807 8.71094C630.807 8.53125 630.753 8.38021 630.647 8.25781C630.543 8.13542 630.389 8.03125 630.186 7.94531C629.985 7.85937 629.739 7.78125 629.447 7.71094L628.576 7.49219C627.902 7.32812 627.369 7.07161 626.979 6.72266C626.588 6.3737 626.394 5.90365 626.397 5.3125C626.394 4.82812 626.523 4.40495 626.783 4.04297C627.046 3.68099 627.407 3.39844 627.865 3.19531C628.324 2.99219 628.845 2.89062 629.428 2.89062C630.022 2.89062 630.54 2.99219 630.983 3.19531C631.428 3.39844 631.774 3.68099 632.022 4.04297C632.269 4.40495 632.397 4.82422 632.405 5.30078H630.783ZM637.925 5.30078C637.894 4.98568 637.76 4.74089 637.523 4.56641C637.286 4.39193 636.964 4.30469 636.558 4.30469C636.282 4.30469 636.049 4.34375 635.859 4.42187C635.669 4.4974 635.523 4.60286 635.422 4.73828C635.323 4.8737 635.273 5.02734 635.273 5.19922C635.268 5.34245 635.298 5.46745 635.363 5.57422C635.431 5.68099 635.523 5.77344 635.64 5.85156C635.757 5.92708 635.893 5.99349 636.047 6.05078C636.2 6.10547 636.364 6.15234 636.539 6.19141L637.257 6.36328C637.606 6.44141 637.927 6.54557 638.218 6.67578C638.51 6.80599 638.763 6.96615 638.976 7.15625C639.19 7.34635 639.355 7.57031 639.472 7.82812C639.592 8.08594 639.653 8.38151 639.656 8.71484C639.653 9.20443 639.528 9.62891 639.281 9.98828C639.036 10.3451 638.682 10.6224 638.218 10.8203C637.757 11.0156 637.201 11.1133 636.55 11.1133C635.905 11.1133 635.342 11.0143 634.863 10.8164C634.386 10.6185 634.014 10.3255 633.746 9.9375C633.48 9.54687 633.341 9.0638 633.328 8.48828H634.964C634.983 8.75651 635.06 8.98047 635.195 9.16016C635.333 9.33724 635.517 9.47135 635.746 9.5625C635.978 9.65104 636.239 9.69531 636.531 9.69531C636.817 9.69531 637.066 9.65365 637.277 9.57031C637.491 9.48698 637.656 9.37109 637.773 9.22266C637.89 9.07422 637.949 8.90365 637.949 8.71094C637.949 8.53125 637.895 8.38021 637.789 8.25781C637.685 8.13542 637.531 8.03125 637.328 7.94531C637.127 7.85937 636.881 7.78125 636.589 7.71094L635.718 7.49219C635.044 7.32812 634.511 7.07161 634.121 6.72266C633.73 6.3737 633.536 5.90365 633.539 5.3125C633.536 4.82812 633.665 4.40495 633.925 4.04297C634.188 3.68099 634.549 3.39844 635.007 3.19531C635.466 2.99219 635.987 2.89062 636.57 2.89062C637.164 2.89062 637.682 2.99219 638.125 3.19531C638.57 3.39844 638.916 3.68099 639.164 4.04297C639.411 4.40495 639.539 4.82422 639.547 5.30078H637.925Z" fill="#0D0D0D"/>
<path d="M0 37H389.586C392.348 37 394.586 39.2386 394.586 42C394.586 44.7614 392.348 47 389.586 47H0V37Z" fill="url(#paint1_linear_388_89)" fill-opacity="0.43"/>
<path d="M409.932 46V38H413.088C413.695 38 414.212 38.1159 414.639 38.3477C415.066 38.5768 415.392 38.8958 415.616 39.3047C415.842 39.7109 415.956 40.1797 415.956 40.7109C415.956 41.2422 415.841 41.7109 415.612 42.1172C415.383 42.5234 415.051 42.8398 414.616 43.0664C414.183 43.293 413.66 43.4062 413.045 43.4062H411.034V42.0508H412.772C413.098 42.0508 413.366 41.9948 413.577 41.8828C413.79 41.7682 413.949 41.6107 414.053 41.4102C414.16 41.207 414.213 40.974 414.213 40.7109C414.213 40.4453 414.16 40.2135 414.053 40.0156C413.949 39.8151 413.79 39.6602 413.577 39.5508C413.363 39.4388 413.092 39.3828 412.764 39.3828H411.624V46H409.932ZM416.988 46V38H418.68V41.3008H422.113V38H423.801V46H422.113V42.6953H418.68V46H416.988ZM425.129 46V38H428.286C428.892 38 429.409 38.1159 429.836 38.3477C430.263 38.5768 430.589 38.8958 430.813 39.3047C431.039 39.7109 431.153 40.1797 431.153 40.7109C431.153 41.2422 431.038 41.7109 430.809 42.1172C430.58 42.5234 430.248 42.8398 429.813 43.0664C429.381 43.293 428.857 43.4062 428.243 43.4062H426.231V42.0508H427.969C428.295 42.0508 428.563 41.9948 428.774 41.8828C428.987 41.7682 429.146 41.6107 429.25 41.4102C429.357 41.207 429.411 40.974 429.411 40.7109C429.411 40.4453 429.357 40.2135 429.25 40.0156C429.146 39.8151 428.987 39.6602 428.774 39.5508C428.56 39.4388 428.289 39.3828 427.961 39.3828H426.821V46H425.129Z" fill="#0D0D0D"/>
<path d="M0 72H87.1786C89.94 72 92.1786 74.2386 92.1786 77C92.1786 79.7614 89.94 82 87.1786 82H0V72Z" fill="url(#paint2_linear_388_89)" fill-opacity="0.43"/>
<path d="M104.093 73H105.765V78.5781C105.765 79.0937 105.649 79.5417 105.417 79.9219C105.188 80.3021 104.869 80.5951 104.46 80.8008C104.051 81.0065 103.576 81.1094 103.034 81.1094C102.552 81.1094 102.115 81.0247 101.722 80.8555C101.331 80.6836 101.021 80.4232 100.792 80.0742C100.563 79.7227 100.449 79.2812 100.452 78.75H102.136C102.141 78.9609 102.184 79.1419 102.265 79.293C102.348 79.4414 102.461 79.556 102.604 79.6367C102.75 79.7148 102.922 79.7539 103.12 79.7539C103.328 79.7539 103.504 79.7096 103.647 79.6211C103.793 79.5299 103.904 79.3971 103.979 79.2227C104.055 79.0482 104.093 78.8333 104.093 78.5781V73ZM108.476 81H106.663L109.425 73H111.605L114.363 81H112.55L110.546 74.8281H110.484L108.476 81ZM108.363 77.8555H112.644V79.1758H108.363V77.8555ZM115.706 73L117.639 79.0781H117.714L119.651 73H121.526L118.768 81H116.589L113.827 73H115.706ZM122.738 81H120.926L123.688 73H125.867L128.625 81H126.813L124.809 74.8281H124.746L122.738 81ZM122.625 77.8555H126.906V79.1758H122.625V77.8555ZM133.679 75.3008C133.648 74.9857 133.514 74.7409 133.277 74.5664C133.04 74.3919 132.718 74.3047 132.312 74.3047C132.036 74.3047 131.803 74.3437 131.613 74.4219C131.423 74.4974 131.277 74.6029 131.175 74.7383C131.076 74.8737 131.027 75.0273 131.027 75.1992C131.022 75.3424 131.052 75.4674 131.117 75.5742C131.184 75.681 131.277 75.7734 131.394 75.8516C131.511 75.9271 131.647 75.9935 131.8 76.0508C131.954 76.1055 132.118 76.1523 132.293 76.1914L133.011 76.3633C133.36 76.4414 133.681 76.5456 133.972 76.6758C134.264 76.806 134.516 76.9661 134.73 77.1562C134.944 77.3464 135.109 77.5703 135.226 77.8281C135.346 78.0859 135.407 78.3815 135.41 78.7148C135.407 79.2044 135.282 79.6289 135.035 79.9883C134.79 80.3451 134.436 80.6224 133.972 80.8203C133.511 81.0156 132.955 81.1133 132.304 81.1133C131.658 81.1133 131.096 81.0143 130.617 80.8164C130.14 80.6185 129.768 80.3255 129.5 79.9375C129.234 79.5469 129.095 79.0638 129.082 78.4883H130.718C130.737 78.7565 130.813 78.9805 130.949 79.1602C131.087 79.3372 131.27 79.4714 131.5 79.5625C131.731 79.651 131.993 79.6953 132.285 79.6953C132.571 79.6953 132.82 79.6536 133.031 79.5703C133.244 79.487 133.41 79.3711 133.527 79.2227C133.644 79.0742 133.703 78.9036 133.703 78.7109C133.703 78.5312 133.649 78.3802 133.543 78.2578C133.438 78.1354 133.285 78.0312 133.082 77.9453C132.881 77.8594 132.635 77.7812 132.343 77.7109L131.472 77.4922C130.798 77.3281 130.265 77.0716 129.875 76.7227C129.484 76.3737 129.29 75.9036 129.293 75.3125C129.29 74.8281 129.419 74.4049 129.679 74.043C129.942 73.681 130.303 73.3984 130.761 73.1953C131.22 72.9922 131.74 72.8906 132.324 72.8906C132.918 72.8906 133.436 72.9922 133.878 73.1953C134.324 73.3984 134.67 73.681 134.918 74.043C135.165 74.4049 135.293 74.8242 135.3 75.3008H133.679ZM143.54 75.8008H141.829C141.798 75.5794 141.734 75.3828 141.638 75.2109C141.541 75.0365 141.418 74.888 141.267 74.7656C141.116 74.6432 140.941 74.5495 140.743 74.4844C140.548 74.4193 140.336 74.3867 140.106 74.3867C139.692 74.3867 139.332 74.4896 139.024 74.6953C138.717 74.8984 138.479 75.1953 138.31 75.5859C138.14 75.974 138.056 76.4453 138.056 77C138.056 77.5703 138.14 78.0495 138.31 78.4375C138.481 78.8255 138.721 79.1185 139.028 79.3164C139.336 79.5143 139.691 79.6133 140.095 79.6133C140.321 79.6133 140.531 79.5833 140.724 79.5234C140.919 79.4635 141.092 79.3763 141.243 79.2617C141.394 79.1445 141.519 79.0026 141.618 78.8359C141.72 78.6693 141.79 78.4792 141.829 78.2656L143.54 78.2734C143.496 78.6406 143.385 78.9948 143.208 79.3359C143.033 79.6745 142.798 79.9779 142.501 80.2461C142.207 80.5117 141.855 80.7227 141.446 80.8789C141.04 81.0326 140.58 81.1094 140.067 81.1094C139.354 81.1094 138.716 80.9479 138.153 80.625C137.593 80.3021 137.151 79.8346 136.825 79.2227C136.502 78.6107 136.341 77.8698 136.341 77C136.341 76.1276 136.505 75.3854 136.833 74.7734C137.161 74.1615 137.606 73.6953 138.169 73.375C138.731 73.0521 139.364 72.8906 140.067 72.8906C140.531 72.8906 140.961 72.9557 141.356 73.0859C141.755 73.2161 142.108 73.4062 142.415 73.6562C142.722 73.9036 142.972 74.207 143.165 74.5664C143.36 74.9258 143.485 75.3372 143.54 75.8008ZM144.687 81V73H147.843C148.447 73 148.963 73.1081 149.39 73.3242C149.82 73.5378 150.147 73.8411 150.37 74.2344C150.597 74.625 150.71 75.0846 150.71 75.6133C150.71 76.1445 150.596 76.6016 150.367 76.9844C150.137 77.3646 149.805 77.6562 149.37 77.8594C148.938 78.0625 148.415 78.1641 147.8 78.1641H145.687V76.8047H147.527C147.85 76.8047 148.118 76.7604 148.331 76.6719C148.545 76.5833 148.704 76.4505 148.808 76.2734C148.915 76.0964 148.968 75.8763 148.968 75.6133C148.968 75.3477 148.915 75.1237 148.808 74.9414C148.704 74.7591 148.544 74.6211 148.328 74.5273C148.114 74.431 147.844 74.3828 147.519 74.3828H146.378V81H144.687ZM149.007 77.3594L150.995 81H149.128L147.183 77.3594H149.007ZM153.531 73V81H151.84V73H153.531ZM154.857 81V73H158.013C158.62 73 159.137 73.1159 159.564 73.3477C159.991 73.5768 160.316 73.8958 160.54 74.3047C160.767 74.7109 160.88 75.1797 160.88 75.7109C160.88 76.2422 160.765 76.7109 160.536 77.1172C160.307 77.5234 159.975 77.8398 159.54 78.0664C159.108 78.293 158.585 78.4062 157.97 78.4062H155.958V77.0508H157.696C158.022 77.0508 158.29 76.9948 158.501 76.8828C158.715 76.7682 158.874 76.6107 158.978 76.4102C159.085 76.207 159.138 75.974 159.138 75.7109C159.138 75.4453 159.085 75.2135 158.978 75.0156C158.874 74.8151 158.715 74.6602 158.501 74.5508C158.288 74.4388 158.017 74.3828 157.689 74.3828H156.548V81H154.857ZM161.608 74.3945V73H168.178V74.3945H165.729V81H164.057V74.3945H161.608Z" fill="#0D0D0D"/>
<path d="M0 107H430.065C432.827 107 435.065 109.239 435.065 112C435.065 114.761 432.827 117 430.065 117H0V107Z" fill="url(#paint3_linear_388_89)" fill-opacity="0.43"/>
<path d="M450.057 108H451.951L453.776 111.445H453.854L455.678 108H457.572L454.654 113.172V116H452.975V113.172L450.057 108ZM458.993 116H457.18L459.942 108H462.122L464.879 116H463.067L461.063 109.828H461.001L458.993 116ZM458.879 112.855H463.161V114.176H458.879V112.855ZM465.776 108H467.862L470.065 113.375H470.159L472.362 108H474.448V116H472.808V110.793H472.741L470.671 115.961H469.554L467.483 110.773H467.417V116H465.776V108ZM475.776 116V108H477.467V114.605H480.897V116H475.776Z" fill="#0D0D0D"/>
<path d="M0 142H404.378C407.14 142 409.378 144.239 409.378 147C409.378 149.761 407.14 152 404.378 152H0V142Z" fill="url(#paint4_linear_388_89)" fill-opacity="0.43"/>
<path d="M425.397 145.301C425.366 144.986 425.231 144.741 424.994 144.566C424.757 144.392 424.436 144.305 424.03 144.305C423.754 144.305 423.52 144.344 423.33 144.422C423.14 144.497 422.994 144.603 422.893 144.738C422.794 144.874 422.744 145.027 422.744 145.199C422.739 145.342 422.769 145.467 422.834 145.574C422.902 145.681 422.994 145.773 423.112 145.852C423.229 145.927 423.364 145.993 423.518 146.051C423.672 146.105 423.836 146.152 424.01 146.191L424.729 146.363C425.078 146.441 425.398 146.546 425.69 146.676C425.981 146.806 426.234 146.966 426.448 147.156C426.661 147.346 426.826 147.57 426.944 147.828C427.063 148.086 427.125 148.382 427.127 148.715C427.125 149.204 427 149.629 426.752 149.988C426.507 150.345 426.153 150.622 425.69 150.82C425.229 151.016 424.673 151.113 424.022 151.113C423.376 151.113 422.813 151.014 422.334 150.816C421.858 150.618 421.485 150.326 421.217 149.937C420.951 149.547 420.812 149.064 420.799 148.488H422.436C422.454 148.757 422.531 148.98 422.666 149.16C422.804 149.337 422.988 149.471 423.217 149.562C423.449 149.651 423.711 149.695 424.002 149.695C424.289 149.695 424.537 149.654 424.748 149.57C424.962 149.487 425.127 149.371 425.244 149.223C425.362 149.074 425.42 148.904 425.42 148.711C425.42 148.531 425.367 148.38 425.26 148.258C425.156 148.135 425.002 148.031 424.799 147.945C424.599 147.859 424.353 147.781 424.061 147.711L423.19 147.492C422.515 147.328 421.983 147.072 421.592 146.723C421.201 146.374 421.007 145.904 421.01 145.312C421.007 144.828 421.136 144.405 421.397 144.043C421.66 143.681 422.02 143.398 422.479 143.195C422.937 142.992 423.458 142.891 424.041 142.891C424.635 142.891 425.153 142.992 425.596 143.195C426.041 143.398 426.388 143.681 426.635 144.043C426.882 144.405 427.01 144.824 427.018 145.301H425.397ZM431.218 148.219H432.656L433.379 149.148L434.09 149.977L435.429 151.656H433.851L432.929 150.523L432.457 149.852L431.218 148.219ZM435.551 147C435.551 147.872 435.385 148.615 435.054 149.227C434.726 149.839 434.278 150.306 433.711 150.629C433.146 150.949 432.51 151.109 431.804 151.109C431.093 151.109 430.455 150.948 429.89 150.625C429.325 150.302 428.879 149.835 428.551 149.223C428.222 148.611 428.058 147.87 428.058 147C428.058 146.128 428.222 145.385 428.551 144.773C428.879 144.161 429.325 143.695 429.89 143.375C430.455 143.052 431.093 142.891 431.804 142.891C432.51 142.891 433.146 143.052 433.711 143.375C434.278 143.695 434.726 144.161 435.054 144.773C435.385 145.385 435.551 146.128 435.551 147ZM433.836 147C433.836 146.435 433.751 145.958 433.582 145.57C433.415 145.182 433.179 144.888 432.875 144.688C432.57 144.487 432.213 144.387 431.804 144.387C431.396 144.387 431.039 144.487 430.734 144.688C430.429 144.888 430.192 145.182 430.023 145.57C429.857 145.958 429.773 146.435 429.773 147C429.773 147.565 429.857 148.042 430.023 148.43C430.192 148.818 430.429 149.112 430.734 149.312C431.039 149.513 431.396 149.613 431.804 149.613C432.213 149.613 432.57 149.513 432.875 149.312C433.179 149.112 433.415 148.818 433.582 148.43C433.751 148.042 433.836 147.565 433.836 147ZM436.737 151V143H438.429V149.605H441.859V151H436.737Z" fill="#0D0D0D"/>
<path d="M0 177H216.885C219.647 177 221.885 179.239 221.885 182C221.885 184.761 219.647 187 216.885 187H0V177Z" fill="url(#paint5_linear_388_89)" fill-opacity="0.43"/>
<path d="M233.477 186V178H236.633C237.24 178 237.757 178.116 238.184 178.348C238.611 178.577 238.936 178.896 239.16 179.305C239.387 179.711 239.5 180.18 239.5 180.711C239.5 181.242 239.386 181.711 239.156 182.117C238.927 182.523 238.595 182.84 238.16 183.066C237.728 183.293 237.205 183.406 236.59 183.406H234.578V182.051H236.317C236.642 182.051 236.91 181.995 237.121 181.883C237.335 181.768 237.494 181.611 237.598 181.41C237.705 181.207 237.758 180.974 237.758 180.711C237.758 180.445 237.705 180.214 237.598 180.016C237.494 179.815 237.335 179.66 237.121 179.551C236.908 179.439 236.637 179.383 236.309 179.383H235.168V186H233.477ZM240.064 178H241.959L243.783 181.445H243.861L245.685 178H247.58L244.662 183.172V186H242.982V183.172L240.064 178ZM248.638 179.395V178H255.208V179.395H252.759V186H251.087V179.395H248.638ZM256.224 186V178H257.916V181.301H261.349V178H263.037V186H261.349V182.695H257.916V186H256.224ZM271.717 182C271.717 182.872 271.551 183.615 271.221 184.227C270.892 184.839 270.445 185.306 269.877 185.629C269.312 185.949 268.676 186.109 267.971 186.109C267.26 186.109 266.622 185.948 266.057 185.625C265.491 185.302 265.045 184.835 264.717 184.223C264.389 183.611 264.225 182.87 264.225 182C264.225 181.128 264.389 180.385 264.717 179.773C265.045 179.161 265.491 178.695 266.057 178.375C266.622 178.052 267.26 177.891 267.971 177.891C268.676 177.891 269.312 178.052 269.877 178.375C270.445 178.695 270.892 179.161 271.221 179.773C271.551 180.385 271.717 181.128 271.717 182ZM270.002 182C270.002 181.435 269.917 180.958 269.748 180.57C269.581 180.182 269.346 179.888 269.041 179.688C268.736 179.487 268.379 179.387 267.971 179.387C267.562 179.387 267.205 179.487 266.9 179.688C266.596 179.888 266.359 180.182 266.189 180.57C266.023 180.958 265.939 181.435 265.939 182C265.939 182.565 266.023 183.042 266.189 183.43C266.359 183.818 266.596 184.112 266.9 184.312C267.205 184.513 267.562 184.613 267.971 184.613C268.379 184.613 268.736 184.513 269.041 184.312C269.346 184.112 269.581 183.818 269.748 183.43C269.917 183.042 270.002 182.565 270.002 182ZM279.595 178V186H278.134L274.654 180.965H274.595V186H272.904V178H274.388L277.841 183.031H277.911V178H279.595Z" fill="#0D0D0D"/>
<path d="M0 212H261.158C263.919 212 266.158 214.239 266.158 217C266.158 219.761 263.919 222 261.158 222H0V212Z" fill="url(#paint6_linear_388_89)" fill-opacity="0.43"/>
<path d="M280.1 213H281.772V218.578C281.772 219.094 281.656 219.542 281.424 219.922C281.195 220.302 280.876 220.595 280.467 220.801C280.058 221.007 279.583 221.109 279.041 221.109C278.559 221.109 278.122 221.025 277.729 220.855C277.338 220.684 277.028 220.423 276.799 220.074C276.57 219.723 276.457 219.281 276.459 218.75H278.143C278.148 218.961 278.191 219.142 278.272 219.293C278.355 219.441 278.468 219.556 278.612 219.637C278.757 219.715 278.929 219.754 279.127 219.754C279.336 219.754 279.511 219.71 279.655 219.621C279.8 219.53 279.911 219.397 279.987 219.223C280.062 219.048 280.1 218.833 280.1 218.578V213ZM284.483 221H282.671L285.432 213H287.612L290.37 221H288.557L286.553 214.828H286.491L284.483 221ZM284.37 217.855H288.651V219.176H284.37V217.855ZM291.713 213L293.647 219.078H293.721L295.658 213H297.533L294.775 221H292.596L289.834 213H291.713ZM298.746 221H296.933L299.695 213H301.875L304.632 221H302.82L300.816 214.828H300.753L298.746 221ZM298.632 217.855H302.914V219.176H298.632V217.855Z" fill="#0D0D0D"/>
<defs>
<linearGradient id="paint0_linear_388_89" x1="494.779" y1="7.33345" x2="96.3453" y2="7.33334" gradientUnits="userSpaceOnUse">
<stop stop-color="#FFB800" stop-opacity="0.43"/>
<stop offset="0.479167" stop-color="#E93F3F" stop-opacity="0.23"/>
<stop offset="1" stop-color="#3F64E9" stop-opacity="0.43"/>
</linearGradient>
<linearGradient id="paint1_linear_388_89" x1="115.088" y1="42.3333" x2="326.849" y2="42.3332" gradientUnits="userSpaceOnUse">
<stop stop-color="#3F64E9" stop-opacity="0.43"/>
<stop offset="1" stop-color="#E93F3F" stop-opacity="0.23"/>
</linearGradient>
<linearGradient id="paint2_linear_388_89" x1="26.8854" y1="77.3333" x2="76.3546" y2="77.3333" gradientUnits="userSpaceOnUse">
<stop stop-color="#3F64E9" stop-opacity="0.43"/>
</linearGradient>
<linearGradient id="paint3_linear_388_89" x1="126.894" y1="112.333" x2="446.452" y2="112.333" gradientUnits="userSpaceOnUse">
<stop stop-color="#3F64E9" stop-opacity="0.43"/>
<stop offset="0.765625" stop-color="#E93F3F" stop-opacity="0.23"/>
<stop offset="1" stop-color="#FFB800" stop-opacity="0.43"/>
</linearGradient>
<linearGradient id="paint4_linear_388_89" x1="119.402" y1="147.333" x2="420.092" y2="147.333" gradientUnits="userSpaceOnUse">
<stop stop-color="#3F64E9" stop-opacity="0.43"/>
<stop offset="0.890625" stop-color="#E93F3F" stop-opacity="0.23"/>
<stop offset="1" stop-color="#FFB800" stop-opacity="0.43"/>
</linearGradient>
<linearGradient id="paint5_linear_388_89" x1="64.7165" y1="182.333" x2="234.762" y2="182.333" gradientUnits="userSpaceOnUse">
<stop stop-color="#3F64E9" stop-opacity="0.43"/>
<stop offset="1" stop-color="#E93F3F" stop-opacity="0.23"/>
</linearGradient>
<linearGradient id="paint6_linear_388_89" x1="77.6293" y1="217.333" x2="220.467" y2="217.333" gradientUnits="userSpaceOnUse">
<stop stop-color="#3F64E9" stop-opacity="0.43"/>
<stop offset="1" stop-color="#E93F3F" stop-opacity="0.23"/>
</linearGradient>
</defs>
</svg>
