<svg width="35" height="36" viewBox="0 0 35 36" fill="none" xmlns="http://www.w3.org/2000/svg">
<g id="Light switch">
<path id="Vector" d="M9.84375 8.15625C9.16443 8.15625 8.5022 8.22888 7.86133 8.36133C7.54089 8.42542 7.21191 8.50659 6.9043 8.60059C4.14856 9.47217 1.90552 11.5315 0.786133 14.1719C0.662232 14.4667 0.538331 14.7529 0.444336 15.0605C0.149536 15.9919 0 16.9703 0 18C0 19.0168 0.158081 19.9824 0.444336 20.9053C0.448608 20.9138 0.440064 20.9309 0.444336 20.9395C1.31592 23.6952 3.37524 25.9382 6.01562 27.0576C6.31042 27.1815 6.59668 27.3054 6.9043 27.3994C7.83569 27.6942 8.81409 27.8438 9.84375 27.8438H25.1562C30.578 27.8438 35 23.4218 35 18C35 12.5782 30.578 8.15625 25.1562 8.15625H9.84375ZM9.84375 10.3438C14.0863 10.3438 17.5 13.7574 17.5 18C17.5 22.2426 14.0863 25.6562 9.84375 25.6562C5.6012 25.6562 2.1875 22.2426 2.1875 18C2.1875 17.7351 2.19605 17.4702 2.22168 17.2139C2.61047 13.343 5.86609 10.3438 9.84375 10.3438ZM15.9961 10.3438H25.1562C29.3988 10.3438 32.8125 13.7574 32.8125 18C32.8125 22.2426 29.3988 25.6562 25.1562 25.6562H15.9961C18.2391 23.849 19.6875 21.0933 19.6875 18C19.6875 14.9067 18.2391 12.151 15.9961 10.3438Z" fill="black"/>
</g>
</svg>
