<svg width="988" height="148" viewBox="0 0 988 148" fill="none" xmlns="http://www.w3.org/2000/svg">
<path d="M31.2422 121H89.1523V146H0.96875V3.22656H31.2422V121ZM125.285 128.91C113.566 116.215 107.707 97.9857 107.707 74.2227C107.707 50.4596 113.566 32.3281 125.285 19.8281C137.069 7.26302 153.898 0.980469 175.773 0.980469C197.714 0.980469 214.51 7.29557 226.164 19.9258C237.818 32.556 243.645 50.7201 243.645 74.418C243.645 98.0508 237.785 116.215 226.066 128.91C214.348 141.605 197.551 147.953 175.676 147.953C153.801 147.953 137.004 141.605 125.285 128.91ZM175.871 26.1758C163.827 26.1758 154.745 30.2448 148.625 38.3828C142.505 46.4557 139.445 58.4674 139.445 74.418C139.445 106.514 151.522 122.562 175.676 122.562C199.829 122.562 211.906 106.514 211.906 74.418C211.906 42.2565 199.895 26.1758 175.871 26.1758ZM384.074 65.8242V139.848C367.408 145.251 350.48 147.953 333.293 147.953C311.809 147.953 295.337 141.638 283.879 129.008C272.551 116.312 266.887 98.2786 266.887 74.9062C266.887 51.5339 273.462 33.4023 286.613 20.5117C299.829 7.62109 318.124 1.17578 341.496 1.17578C356.145 1.17578 370.272 4.10547 383.879 9.96484L373.82 34.1836C363.273 28.9753 352.434 26.3711 341.301 26.3711C328.215 26.3711 317.733 30.7982 309.855 39.6523C301.978 48.4414 298.039 60.4206 298.039 75.5898C298.039 90.694 301.197 102.348 307.512 110.551C313.892 118.689 323.137 122.758 335.246 122.758C341.366 122.758 347.779 122.107 354.484 120.805V91.0195H327.434V65.8242H384.074ZM448.43 146H418.156V3.22656H448.43V146ZM542.082 147.953C521.314 147.953 505.428 141.671 494.426 129.105C483.423 116.54 477.922 98.4414 477.922 74.8086C477.922 74.4831 477.922 74.1576 477.922 73.832C477.922 59.5091 480.624 46.8138 486.027 35.7461C491.431 24.6133 499.146 16.0846 509.172 10.1602C519.198 4.17057 530.689 1.17578 543.645 1.17578C544.1 1.17578 544.523 1.17578 544.914 1.17578C558.911 1.17578 572.844 4.52865 586.711 11.2344L576.945 35.8438C563.729 29.5286 553.052 26.3711 544.914 26.3711C533.521 26.3711 524.699 30.668 518.449 39.2617C512.199 47.7904 509.074 59.7044 509.074 75.0039C509.074 106.84 521.021 122.758 544.914 122.758C554.875 122.758 567.017 120.251 581.34 115.238V140.629C569.621 145.512 556.535 147.953 542.082 147.953ZM642.18 146H611.906V3.22656H642.18V146ZM760.344 28.0312H708.391V59.3789H756.633V84.1836H708.391V121H760.344V146H678.117V3.22656H760.344V28.0312ZM820.5 121H878.41V146H790.227V3.22656H820.5V121ZM894.426 111.234C904.322 115.596 912.557 118.656 919.133 120.414C925.773 122.107 932.121 122.953 938.176 122.953C944.296 122.953 949.113 121.684 952.629 119.145C956.145 116.605 957.902 112.829 957.902 107.816C957.902 105.017 957.154 102.576 955.656 100.492C954.159 98.3438 951.848 96.2279 948.723 94.1445C945.663 91.9961 939.608 88.806 930.559 84.5742C921.509 80.2773 914.836 76.2734 910.539 72.5625C900.969 64.2943 896.184 53.9427 896.184 41.5078C896.184 29.0729 900.448 19.2422 908.977 12.0156C917.57 4.78906 929.419 1.17578 944.523 1.17578C957.219 1.17578 971.346 4.52865 986.906 11.2344L977.141 34.7695C969.784 31.7747 963.566 29.6263 958.488 28.3242C953.41 27.0221 948.234 26.3711 942.961 26.3711C937.753 26.3711 933.586 27.7057 930.461 30.375C927.336 32.9792 925.773 36.4622 925.773 40.8242C925.773 43.4935 926.359 45.8372 927.531 47.8555C928.768 49.8086 930.721 51.7292 933.391 53.6172C936.125 55.4401 942.57 58.7604 952.727 63.5781C966.008 69.8932 975.122 76.306 980.07 82.8164C985.083 89.0664 987.59 96.9115 987.59 106.352C987.59 119.112 982.935 129.301 973.625 136.918C964.315 144.275 951.717 147.953 935.832 147.953C919.947 147.953 906.145 145.089 894.426 139.359V111.234Z" fill="#0D0D0D"/>
</svg>
