<svg width="60" height="73" viewBox="0 0 60 73" fill="none" xmlns="http://www.w3.org/2000/svg">
<g clip-path="url(#clip0_372_1331)">
<path d="M43.0513 16.7037C37.5546 16.7037 33.0539 19.8837 30.1765 19.8837C27.1145 19.8837 23.1304 16.9133 18.3346 16.9133C9.22265 16.9133 0 24.0421 0 37.4611C0 45.8478 3.39393 54.6888 7.63633 60.3848C11.2516 65.2074 14.4242 69.1561 18.9986 69.1561C23.4993 69.1561 25.4914 66.3256 31.0987 66.3256C36.7799 66.3256 38.0709 69.086 43.0513 69.086C47.9947 69.086 51.2778 64.788 54.4136 60.5595C57.8814 55.7022 59.3569 50.9845 59.3939 50.7401C59.0985 50.6703 49.6546 47.0011 49.6546 36.7619C49.6546 27.8861 57.0696 23.9023 57.5123 23.5878C52.606 16.9133 45.1173 16.7037 43.0513 16.7037ZM40.469 11.0426C42.7193 8.45667 44.3055 4.92722 44.3055 1.36285C44.3055 0.873625 44.2688 0.384395 44.1948 0C40.506 0.13978 36.0789 2.30637 33.4597 5.24173C31.357 7.4782 29.4387 11.0426 29.4387 14.607C29.4387 15.1661 29.5493 15.6903 29.5862 15.865C29.8075 15.8999 30.1765 15.9698 30.5823 15.9698C33.8655 15.9698 37.9973 13.8731 40.469 11.0426Z" fill="black" fill-opacity="0.85"/>
</g>
<defs>
<clipPath id="clip0_372_1331">
<rect width="59.3939" height="73" fill="white"/>
</clipPath>
</defs>
</svg>
