<svg width="49" height="49" viewBox="0 0 49 49" fill="none" xmlns="http://www.w3.org/2000/svg">
<g filter="url(#filter0_d_508_580)">
<g filter="url(#filter1_b_508_580)">
<rect x="43" y="43" width="39" height="39" rx="19.5" transform="rotate(-180 43 43)" fill="white" fill-opacity="0.25"/>
<rect x="42.5" y="42.5" width="38" height="38" rx="19" transform="rotate(-180 42.5 42.5)" stroke="url(#paint0_linear_508_580)" stroke-opacity="0.2"/>
<path d="M28.6484 23.6406C28.6432 23.8021 28.612 23.9505 28.5547 24.0859C28.4922 24.2214 28.3984 24.3516 28.2734 24.4766L22.2578 30.3594C22.0599 30.5573 21.8177 30.6562 21.5312 30.6562C21.3333 30.6562 21.1562 30.6094 21 30.5156C20.8385 30.4219 20.7109 30.2943 20.6172 30.1328C20.5182 29.9766 20.4688 29.8021 20.4688 29.6094C20.4688 29.3177 20.5781 29.0625 20.7969 28.8438L26.1484 23.6406L20.7969 18.4375C20.5781 18.2135 20.4688 17.9583 20.4688 17.6719C20.4688 17.474 20.5182 17.2969 20.6172 17.1406C20.7109 16.9844 20.8385 16.8594 21 16.7656C21.1562 16.6719 21.3333 16.625 21.5312 16.625C21.8177 16.625 22.0599 16.724 22.2578 16.9219L28.2734 22.8047C28.4036 22.9297 28.5 23.0599 28.5625 23.1953C28.6198 23.3359 28.6484 23.4844 28.6484 23.6406Z" fill="black"/>
</g>
</g>
<defs>
<filter id="filter0_d_508_580" x="0" y="0" width="49" height="49" filterUnits="userSpaceOnUse" color-interpolation-filters="sRGB">
<feFlood flood-opacity="0" result="BackgroundImageFix"/>
<feColorMatrix in="SourceAlpha" type="matrix" values="0 0 0 0 0 0 0 0 0 0 0 0 0 0 0 0 0 0 127 0" result="hardAlpha"/>
<feOffset dx="1" dy="1"/>
<feGaussianBlur stdDeviation="2.5"/>
<feComposite in2="hardAlpha" operator="out"/>
<feColorMatrix type="matrix" values="0 0 0 0 0.0509804 0 0 0 0 0.0509804 0 0 0 0 0.0509804 0 0 0 0.25 0"/>
<feBlend mode="normal" in2="BackgroundImageFix" result="effect1_dropShadow_508_580"/>
<feBlend mode="normal" in="SourceGraphic" in2="effect1_dropShadow_508_580" result="shape"/>
</filter>
<filter id="filter1_b_508_580" x="-96" y="-96" width="239" height="239" filterUnits="userSpaceOnUse" color-interpolation-filters="sRGB">
<feFlood flood-opacity="0" result="BackgroundImageFix"/>
<feGaussianBlur in="BackgroundImageFix" stdDeviation="50"/>
<feComposite in2="SourceAlpha" operator="in" result="effect1_backgroundBlur_508_580"/>
<feBlend mode="normal" in="SourceGraphic" in2="effect1_backgroundBlur_508_580" result="shape"/>
</filter>
<linearGradient id="paint0_linear_508_580" x1="50.5" y1="46.5" x2="73.5" y2="79.5" gradientUnits="userSpaceOnUse">
<stop stop-color="white" stop-opacity="0.71"/>
<stop offset="0.473958" stop-color="#323232" stop-opacity="0"/>
<stop offset="0.973958" stop-color="white" stop-opacity="0.25"/>
</linearGradient>
</defs>
</svg>
