<svg width="27" height="27" viewBox="0 0 27 27" fill="none" xmlns="http://www.w3.org/2000/svg">
<g clip-path="url(#clip0_562_5084)">
<path d="M9.5625 15.1875L7.875 13.5L9.5625 11.8125" stroke="#0D0D0D" stroke-width="1.5" stroke-linecap="round" stroke-linejoin="round"/>
<path d="M17.4375 11.8125L19.125 13.5L17.4375 15.1875" stroke="#0D0D0D" stroke-width="1.5" stroke-linecap="round" stroke-linejoin="round"/>
<path d="M3.375 13.5C3.375 14.8296 3.63689 16.1462 4.14572 17.3747C4.65455 18.6031 5.40035 19.7193 6.34054 20.6595C7.28074 21.5996 8.39691 22.3455 9.62533 22.8543C10.8538 23.3631 12.1704 23.625 13.5 23.625C14.8296 23.625 16.1462 23.3631 17.3747 22.8543C18.6031 22.3455 19.7193 21.5996 20.6595 20.6595C21.5996 19.7193 22.3455 18.6031 22.8543 17.3747C23.3631 16.1462 23.625 14.8296 23.625 13.5C23.625 12.1704 23.3631 10.8538 22.8543 9.62533C22.3455 8.39691 21.5996 7.28074 20.6595 6.34054C19.7193 5.40035 18.6031 4.65455 17.3747 4.14572C16.1462 3.63689 14.8296 3.375 13.5 3.375C12.1704 3.375 10.8538 3.63689 9.62533 4.14572C8.39691 4.65455 7.28074 5.40035 6.34054 6.34054C5.40035 7.28074 4.65455 8.39691 4.14572 9.62533C3.63689 10.8538 3.375 12.1704 3.375 13.5Z" stroke="#0D0D0D" stroke-width="1.5" stroke-linecap="round" stroke-linejoin="round"/>
<path d="M14.625 10.6875L12.375 16.875" stroke="#0D0D0D" stroke-width="1.5" stroke-linecap="round" stroke-linejoin="round"/>
</g>
<defs>
<clipPath id="clip0_562_5084">
<rect width="27" height="27" fill="white"/>
</clipPath>
</defs>
</svg>
