<svg width="25" height="24" viewBox="0 0 25 24" fill="none" xmlns="http://www.w3.org/2000/svg">
<path fill-rule="evenodd" clip-rule="evenodd" d="M2.87868 4.62868C3.44129 4.06607 4.20435 3.75 5 3.75H20C20.7957 3.75 21.5587 4.06607 22.1213 4.62868C22.6839 5.19129 23 5.95435 23 6.75V6.99292V17.25C23 18.0456 22.6839 18.8087 22.1213 19.3713C21.5587 19.9339 20.7957 20.25 20 20.25H5C4.20435 20.25 3.44129 19.9339 2.87868 19.3713C2.31607 18.8087 2 18.0456 2 17.25V6.99458V6.75C2 5.95435 2.31607 5.19129 2.87868 4.62868ZM3.5 6.75V6.994C3.5 6.99411 3.5 6.99389 3.5 6.994C3.50003 7.24998 3.56557 7.50212 3.69038 7.72561C3.81518 7.94909 3.99509 8.13691 4.21299 8.2712L11.713 12.8852C11.9495 13.0309 12.2222 13.1082 12.5 13.1082C12.7778 13.1082 13.0501 13.0311 13.2867 12.8854L20.7867 8.27042C21.0046 8.13612 21.1848 7.94811 21.3096 7.72461C21.4344 7.50112 21.5 7.2494 21.5 6.99342C21.5 6.99331 21.5 6.99353 21.5 6.99342V6.75C21.5 6.35218 21.342 5.97064 21.0607 5.68934C20.7794 5.40804 20.3978 5.25 20 5.25H5C4.60218 5.25 4.22064 5.40804 3.93934 5.68934C3.65804 5.97064 3.5 6.35218 3.5 6.75ZM21.5 9.59271L14.0733 14.1626C14.0732 14.1626 14.0734 14.1625 14.0733 14.1626C13.6003 14.4538 13.0555 14.6082 12.5 14.6082C11.9445 14.6082 11.4 14.454 10.927 14.1628C10.9269 14.1627 10.9271 14.1629 10.927 14.1628L3.5 9.5937V17.25C3.5 17.6478 3.65804 18.0294 3.93934 18.3107C4.22064 18.592 4.60218 18.75 5 18.75H20C20.3978 18.75 20.7794 18.592 21.0607 18.3107C21.342 18.0294 21.5 17.6478 21.5 17.25V9.59271Z" fill="#0D0D0D"/>
</svg>
