<svg width="13" height="13" viewBox="0 0 13 13" fill="none" xmlns="http://www.w3.org/2000/svg">
<g clip-path="url(#clip0_675_367)">
<path fill-rule="evenodd" clip-rule="evenodd" d="M6.49965 0.270874C4.95657 0.271675 3.46408 0.818206 2.28906 1.81274C1.11404 2.80728 0.333121 4.18496 0.0859266 5.69946C-0.161268 7.21395 0.141384 8.76649 0.93977 10.0795C1.73816 11.3924 2.98021 12.3802 4.44384 12.8662C4.76674 12.9262 4.88837 12.726 4.88837 12.5559C4.88837 12.3857 4.88191 11.8923 4.87976 11.3529C3.07151 11.7436 2.68942 10.5899 2.68942 10.5899C2.3945 9.84074 1.96827 9.64382 1.96827 9.64382C1.37844 9.24356 2.0124 9.25105 2.0124 9.25105C2.66574 9.29707 3.00909 9.91779 3.00909 9.91779C3.58816 10.9056 4.52995 10.6199 4.90021 10.4529C4.95833 10.0344 5.12732 9.74977 5.31353 9.58817C3.86908 9.42549 2.35144 8.87112 2.35144 6.39464C2.34249 5.75238 2.58219 5.13128 3.02093 4.65983C2.9542 4.49715 2.73139 3.84004 3.08443 2.94748C3.08443 2.94748 3.63014 2.77411 4.87223 3.60995C5.93762 3.32025 7.06168 3.32025 8.12707 3.60995C9.36809 2.77411 9.91271 2.94748 9.91271 2.94748C10.2668 3.8379 10.044 4.49501 9.9773 4.65983C10.4174 5.13135 10.6576 5.75354 10.6479 6.39678C10.6479 8.87861 9.12699 9.42549 7.68039 9.58496C7.91288 9.78616 8.12061 10.1789 8.12061 10.7825C8.12061 11.6473 8.11308 12.3429 8.11308 12.5559C8.11308 12.7282 8.2304 12.9294 8.55976 12.8662C10.0236 12.3802 11.2657 11.3922 12.0641 10.079C12.8625 8.76581 13.165 7.21304 12.9175 5.6984C12.67 4.18377 11.8887 2.80607 10.7133 1.8117C9.5379 0.817338 8.04507 0.271167 6.5018 0.270874H6.49965Z" fill="white"/>
<path d="M2.46062 9.55071C2.44663 9.58282 2.39496 9.59245 2.35298 9.56998C2.31101 9.5475 2.2798 9.50577 2.29487 9.47259C2.30993 9.43941 2.36052 9.43085 2.4025 9.45332C2.44448 9.4758 2.47676 9.51861 2.46062 9.55071Z" fill="white"/>
<path d="M2.72606 9.84278C2.70377 9.85395 2.67827 9.85707 2.65392 9.8516C2.62958 9.84614 2.6079 9.83242 2.5926 9.81282C2.55062 9.76787 2.54201 9.7058 2.5743 9.67797C2.60659 9.65015 2.66471 9.66299 2.70669 9.70794C2.74867 9.75289 2.75835 9.81496 2.72606 9.84278Z" fill="white"/>
<path d="M2.98098 10.2143C2.94116 10.2421 2.87335 10.2143 2.83567 10.1586C2.82526 10.1486 2.81697 10.1367 2.81131 10.1234C2.80565 10.1102 2.80273 10.0959 2.80273 10.0815C2.80273 10.0672 2.80565 10.0529 2.81131 10.0397C2.81697 10.0264 2.82526 10.0145 2.83567 10.0045C2.8755 9.97774 2.94331 10.0045 2.98098 10.0591C3.01865 10.1137 3.01973 10.1864 2.98098 10.2143V10.2143Z" fill="white"/>
<path d="M3.32929 10.5738C3.29377 10.6134 3.22166 10.6027 3.16246 10.5492C3.10326 10.4957 3.08926 10.4229 3.12478 10.3844C3.1603 10.3459 3.23242 10.3566 3.29377 10.409C3.35512 10.4615 3.36696 10.5353 3.32929 10.5738V10.5738Z" fill="white"/>
<path d="M3.81749 10.7836C3.80135 10.8339 3.72815 10.8564 3.65496 10.835C3.58177 10.8136 3.53334 10.7536 3.54733 10.7022C3.56132 10.6509 3.63559 10.6273 3.70986 10.6509C3.78412 10.6744 3.83148 10.7311 3.81749 10.7836Z" fill="white"/>
<path d="M4.34908 10.8199C4.34908 10.8723 4.28881 10.9173 4.21131 10.9184C4.13382 10.9194 4.07031 10.8766 4.07031 10.8242C4.07031 10.7717 4.13058 10.7268 4.20808 10.7257C4.28558 10.7247 4.34908 10.7664 4.34908 10.8199Z" fill="white"/>
<path d="M4.84412 10.7376C4.8538 10.79 4.79999 10.8446 4.72249 10.8574C4.64499 10.8703 4.57718 10.8392 4.5675 10.7879C4.55781 10.7365 4.61378 10.6809 4.68912 10.6669C4.76447 10.653 4.83443 10.6851 4.84412 10.7376Z" fill="white"/>
</g>
<defs>
<clipPath id="clip0_675_367">
<rect width="13" height="13" fill="white"/>
</clipPath>
</defs>
</svg>
